<svg xmlns="http://www.w3.org/2000/svg" xmlns:xlink="http://www.w3.org/1999/xlink" width="42" height="15" viewBox="0 0 42 15" fill="none"><defs><linearGradient id="linear_0" x1="50%" y1="21.515%" x2="51%" y2="80.791%" gradientUnits="objectBoundingBox"><stop offset="0" stop-color="#FFEA4F" stop-opacity="1" /><stop offset="1" stop-color="#E8A333" stop-opacity="1" /></linearGradient></defs><g opacity="1" transform="translate(-3.356933575560106e-7 -0.0000012207031261368684)  rotate(0 20.563000000000002 7.205)"><path id="文本 1" fill-rule="evenodd" fill="url(#linear_0)" transform="translate(0.5 0.5)  rotate(0 20.016 6.705)" opacity="1" d="M5.06 13.41C7.97 13.41 10.3 12.19 10.3 9.45C10.3 7.67 9.27 6.66 7.92 6.3L7.92 6.23C9 5.81 9.67 4.52 9.67 3.33C9.67 0.76 7.45 0 4.68 0L0 0L0 13.41L5.06 13.41ZM20.43 6.23C21.51 5.81 22.18 4.52 22.18 3.33C22.18 0.76 19.96 0 17.19 0L12.51 0L12.51 13.41L17.57 13.41C20.48 13.41 22.81 12.19 22.81 9.45C22.81 7.67 21.78 6.66 20.43 6.3L20.43 6.23ZM40.03 0L37.71 13.41L33.66 13.41L32.45 7.58C32.24 6.55 32.06 5.47 31.93 4.46L31.86 4.46C31.68 5.47 31.52 6.55 31.32 7.58L30.15 13.41L26.17 13.41L23.74 0L27.02 0L27.86 6.12C28.04 7.52 28.22 8.93 28.4 10.37L28.48 10.37C28.73 8.93 29 7.51 29.27 6.12L30.64 0L33.35 0L34.74 6.12C35.01 7.49 35.24 8.93 35.51 10.37L35.6 10.37C35.77 8.93 35.95 7.51 36.11 6.12L36.99 0L40.03 0ZM3.22 2.47L3.22 5.33L4.55 5.33C5.92 5.33 6.53 4.73 6.53 3.82C6.53 2.86 5.9 2.47 4.55 2.47L3.22 2.47ZM15.73 5.33L17.06 5.33C18.43 5.33 19.04 4.73 19.04 3.82C19.04 2.86 18.41 2.47 17.06 2.47L15.73 2.47L15.73 5.33ZM3.22 10.94L3.22 7.69L4.82 7.69C6.39 7.69 7.16 8.14 7.16 9.23C7.16 10.39 6.37 10.94 4.82 10.94L3.22 10.94ZM19.67 9.23C19.67 10.39 18.88 10.94 17.33 10.94L15.73 10.94L15.73 7.69L17.33 7.69C18.9 7.69 19.67 8.14 19.67 9.23Z" /><path id="文本 1 (轮廓)" fill-rule="evenodd" style="fill:#FFEB3B" transform="translate(0 0)  rotate(0 20.563000000000002 7.205)" opacity="1" d="M10.83 11.96C10.53 12.52 10.11 12.99 9.55 13.37C9.04 13.72 8.43 13.98 7.73 14.16C7.07 14.33 6.34 14.41 5.56 14.41L0 14.41L0 0L5.18 0C6.8 0 8.06 0.25 8.96 0.76C9.51 1.07 9.92 1.48 10.21 1.97C10.51 2.5 10.67 3.12 10.67 3.83C10.67 4.54 10.49 5.2 10.13 5.82C9.94 6.16 9.71 6.44 9.46 6.67C9.87 6.89 10.21 7.17 10.5 7.53C11.03 8.17 11.3 8.98 11.3 9.95C11.3 10.7 11.14 11.37 10.83 11.96ZM12.51 0L17.69 0C19.31 0 20.57 0.25 21.47 0.76C22.02 1.07 22.43 1.48 22.72 1.97C23.02 2.5 23.18 3.12 23.18 3.83C23.18 4.54 23 5.2 22.64 5.82C22.45 6.16 22.22 6.44 21.97 6.67C22.38 6.89 22.72 7.17 23.01 7.53C23.54 8.17 23.81 8.98 23.81 9.95C23.81 10.7 23.65 11.37 23.34 11.96C23.04 12.52 22.62 12.99 22.06 13.37C21.55 13.72 20.94 13.98 20.24 14.16C19.58 14.33 18.85 14.41 18.07 14.41L12.51 14.41L12.51 0ZM33.75 14.41L32.46 8.18C32.44 8.05 32.41 7.92 32.38 7.78C32.36 7.93 32.33 8.06 32.31 8.18L31.06 14.41L26.25 14.41L23.64 0L27.95 0L28.86 6.56L29.02 7.84C29.1 7.42 29.19 6.98 29.28 6.52L30.74 0L34.25 0L35.73 6.52C35.79 6.84 35.87 7.26 35.97 7.78L36.11 6.55L37.06 0L41.13 0L38.63 14.41L33.75 14.41ZM0.5 0.5L0.5 13.91L5.56 13.91C8.47 13.91 10.8 12.69 10.8 9.95C10.8 8.43 10.05 7.48 9 7C8.82 6.93 8.64 6.86 8.45 6.81C8.44 6.81 8.43 6.8 8.42 6.8L8.42 6.73C8.43 6.73 8.43 6.72 8.44 6.72C8.62 6.65 8.79 6.55 8.94 6.44C9.71 5.87 10.17 4.81 10.17 3.83C10.17 1.26 7.95 0.5 5.18 0.5L0.5 0.5ZM21.51 7C21.33 6.93 21.15 6.86 20.96 6.81C20.95 6.81 20.94 6.8 20.93 6.8L20.93 6.73C20.94 6.73 20.94 6.72 20.95 6.72C21.13 6.65 21.3 6.55 21.45 6.44C22.22 5.87 22.68 4.81 22.68 3.83C22.68 1.26 20.46 0.5 17.69 0.5L13.01 0.5L13.01 13.91L18.07 13.91C20.98 13.91 23.31 12.69 23.31 9.95C23.31 8.43 22.56 7.48 21.51 7ZM26.67 13.91L30.65 13.91L31.82 8.08C31.93 7.51 32.03 6.93 32.12 6.35C32.2 5.88 32.28 5.42 32.36 4.97L32.36 4.96L32.43 4.96L32.43 4.98C32.49 5.42 32.56 5.88 32.63 6.35C32.73 6.93 32.83 7.51 32.95 8.08L34.16 13.91L38.21 13.91L40.45 1L40.53 0.5L37.49 0.5L36.61 6.62C36.5 7.55 36.38 8.5 36.27 9.46C36.21 9.92 36.16 10.39 36.11 10.85L36.1 10.87L36.01 10.87L36.01 10.86C35.93 10.4 35.84 9.94 35.76 9.49C35.59 8.52 35.42 7.55 35.24 6.62L33.85 0.5L31.14 0.5L29.77 6.62C29.59 7.55 29.4 8.5 29.23 9.46C29.14 9.92 29.06 10.39 28.98 10.86L28.98 10.87L28.9 10.87L28.9 10.86C28.84 10.38 28.78 9.91 28.72 9.44C28.6 8.49 28.48 7.56 28.36 6.62L27.52 0.5L24.24 0.5L24.33 1L26.67 13.91ZM5.05 2.97C6.4 2.97 7.03 3.36 7.03 4.32C7.03 5.23 6.42 5.83 5.05 5.83L3.72 5.83L3.72 2.97L5.05 2.97ZM16.23 2.97L16.23 5.83L17.56 5.83C18.93 5.83 19.54 5.23 19.54 4.32C19.54 3.36 18.91 2.97 17.56 2.97L16.23 2.97ZM4.22 3.47L5.05 3.47C5.63 3.47 6.04 3.54 6.27 3.7C6.45 3.82 6.53 4.02 6.53 4.32C6.53 4.63 6.44 4.87 6.24 5.03C6 5.23 5.6 5.33 5.05 5.33L4.22 5.33L4.22 3.47ZM18.75 5.03C18.95 4.87 19.04 4.63 19.04 4.32C19.04 4.02 18.96 3.82 18.78 3.7C18.55 3.54 18.14 3.47 17.56 3.47L16.73 3.47L16.73 5.33L17.56 5.33C18.11 5.33 18.51 5.23 18.75 5.03ZM3.72 11.44L3.72 8.19L5.32 8.19C6.89 8.19 7.66 8.64 7.66 9.73C7.66 10.89 6.87 11.44 5.32 11.44L3.72 11.44ZM17.83 8.19L16.23 8.19L16.23 11.44L17.83 11.44C19.38 11.44 20.17 10.89 20.17 9.73C20.17 8.64 19.4 8.19 17.83 8.19ZM5.32 8.69C6.02 8.69 6.52 8.78 6.81 8.97C6.93 9.04 7.01 9.14 7.07 9.25Q7.16 9.445 7.16 9.73C7.16 10.14 7.04 10.43 6.78 10.62C6.48 10.83 5.99 10.94 5.32 10.94L4.22 10.94L4.22 8.69L5.32 8.69ZM19.32 8.97C19.03 8.78 18.53 8.69 17.83 8.69L16.73 8.69L16.73 10.94L17.83 10.94C18.5 10.94 18.99 10.83 19.29 10.62C19.55 10.43 19.67 10.14 19.67 9.73Q19.67 9.445 19.58 9.25C19.52 9.14 19.44 9.04 19.32 8.97Z" /></g></svg>