<svg xmlns="http://www.w3.org/2000/svg" xmlns:xlink="http://www.w3.org/1999/xlink" width="30" height="30"
  viewBox="0 0 30 30" fill="none">
  <g opacity="1" transform="translate(-5.073543434264138e-7 -8.678632639202988e-7)  rotate(0 15.000000000000002 15)">
    <g opacity="1" transform="translate(3.1810909041090554 0.5)  rotate(0 11.818909095890932 14.500000000000002)">
      <path id="路径 1" fill-rule="evenodd" style="fill:#FF8D1A"
        transform="translate(20.545064798055513 16.19701195405407)  rotate(0 1.546376696863175 1.663561260815659)"
        opacity="1"
        d="M0.72,0.64L0.01,0.84L0.01,0.83C0.03,1.09 0.05,1.35 0.05,1.61C0.05,1.92 0.03,2.22 0,2.52L0.7,2.72L2.85,3.3L2.93,3.32L2.96,3.33C3.05,2.77 3.09,2.2 3.09,1.61C3.09,1.07 3.05,0.53 2.98,0L2.94,0.01L2.87,0.03L0.72,0.64Z " />
      <path id="路径 2" fill-rule="evenodd" style="fill:#FF8D1A"
        transform="translate(15.64629047753205 24.579154881478832)  rotate(0 1.8267005557299019 1.9025258618168062)"
        opacity="1"
        d="M2.02,0.56L1.45,0C1,0.32 0.51,0.6 0,0.83L0.19,1.54L0.76,3.7L0.79,3.8L0.79,3.81C1.83,3.4 2.79,2.84 3.65,2.15L3.64,2.14L3.62,2.12L2.02,0.56Z " />
      <path id="路径 3" fill-rule="evenodd" style="fill:#FF8D1A"
        transform="translate(1.492233341310412 10.590534776719522)  rotate(0 2.11851309733707 2.4264097947808523)"
        opacity="1"
        d="M2.95,0C2.88,0.05 2.82,0.09 2.78,0.11L2.73,0.15L1.59,0.97C1.2,1.53 0.76,2.27 0.4,3.13C0.25,3.49 0.11,3.87 0,4.27L2.16,4.85C2.16,4.85 2.8,2.64 4.24,1.25L3.86,0.89L3.86,0.89L2.95,0Z " />
      <path id="路径 4" fill-rule="evenodd" style="fill:#FF8D1A"
        transform="translate(9.883567214927526 6.923347245971191)  rotate(0 2.509128310512017 1.1465705374958761)"
        opacity="1"
        d="M4.67 1.47L5.02 0.11C5.02 0.11 4.81 0.06 4.44 0L3.69 0.22C2.96 0.42 2.28 0.58 1.61 0.74C1.05 0.87 0.51 1.01 0 1.15L0.3 2.29C0.3 2.29 1.01 2.12 1.96 2.07C2.14 2.06 2.33 2.05 2.53 2.05C3.15 2.05 3.82 2.11 4.46 2.29L4.67 1.47Z" />
      <path id="路径 5" fill-rule="evenodd" style="fill:#FF8D1A"
        transform="translate(1.496828814406587 20.415656256343507)  rotate(0 2.1139176242408935 2.5895490896950957)"
        opacity="1"
        d="M4.23 3.6C4.23 3.6 2.63 1.94 2.15 0L0 0.61C0.1 0.96 0.22 1.3 0.35 1.63C0.66 2.36 1.17 3.38 1.94 4.37C1.96 4.39 1.98 4.42 1.99 4.44C2.08 4.54 2.17 4.66 2.26 4.76L2.32 4.82C2.42 4.94 2.53 5.06 2.65 5.18L4.23 3.6Z" />
      <path id="路径 6" fill-rule="evenodd" style="fill:#FF8D1A"
        transform="translate(5.209971076116679 24.565368462190303)  rotate(0 1.815211872989463 1.9140145445572438)"
        opacity="1"
        d="M2.89 3.76L2.87 3.83C1.83 3.42 0.86 2.86 0 2.17L0.04 2.14L1.62 0.56L1.62 0.57L2.18 0C2.64 0.33 3.12 0.61 3.63 0.84L3.44 1.58L2.89 3.76Z" />
      <path id="路径 7" fill-rule="evenodd" style="fill:#FF8D1A"
        transform="translate(9.617029775349327 26.52763547425739)  rotate(0 2.6423970303011166 1.236182262871306)"
        opacity="1"
        d="M0.55,0L0,2.18C0,2.18 1.13,2.47 2.67,2.47C3.46,2.47 4.37,2.39 5.28,2.16L4.71,0C4.71,0 3.71,0.24 2.48,0.24C1.87,0.24 1.19,0.18 0.55,0Z " />
      <path id="路径 8" fill-rule="evenodd" style="fill:#FF8D1A"
        transform="translate(18.757425763643102 20.415656256343496)  rotate(0 2.116215360788982 2.580358143502742)"
        opacity="1"
        d="M3.52,2.4C3.56,2.33 3.59,2.27 3.62,2.2C3.86,1.68 4.07,1.14 4.23,0.58L4.23,0.58L2.08,0C2.08,0 1.43,2.22 0,3.6L1.6,5.16C1.89,4.85 2.17,4.52 2.43,4.18C2.76,3.74 3.13,3.17 3.48,2.5C3.49,2.46 3.51,2.44 3.52,2.4Z " />
      <path id="路径 9" fill-rule="evenodd" style="fill:#FF8D1A"
        transform="translate(0.8902263657113749 16.34866256622787)  rotate(0 1.5440789603150875 1.5969269009211124)"
        opacity="1"
        d="M2.34 0.61L3.07 0.8C3.05 1.02 3.03 1.24 3.03 1.46C3.03 1.76 3.05 2.06 3.08 2.35L3.09 2.36L2.33 2.57L0.18 3.18L0.13 3.19C0.05 2.64 0 2.06 0 1.48L0 1.44C0 1.15 0.01 0.87 0.04 0.59C0.04 0.52 0.05 0.45 0.05 0.38C0.06 0.25 0.08 0.12 0.1 0L0.19 0.02L2.34 0.61Z" />
      <path id="路径 10" fill-rule="evenodd" style="fill:#FF8D1A"
        transform="translate(18.76202123673928 10.149369359486641)  rotate(0 2.1116198876928056 2.589549089695095)"
        opacity="1"
        d="M2.28 0.81C2.27 0.79 2.25 0.76 2.23 0.74C2.14 0.63 2.05 0.52 1.96 0.42C1.94 0.4 1.93 0.38 1.91 0.36Q1.76 0.18 1.58 0L0 1.58C0 1.58 1.59 3.24 2.08 5.18L4.22 4.57C4.12 4.22 4 3.88 3.87 3.55C3.57 2.82 3.06 1.8 2.28 0.81Z" />
      <path id="路径 11" fill-rule="evenodd" style="fill:#FF8D1A"
        transform="translate(15.69684068158998 7.281794147472906)  rotate(0 1.8129141364413754 1.90712133491298)"
        opacity="1"
        d="M0.71,0.14L0.57,0.68L0.16,2.32L0,2.95C0.52,3.18 1.02,3.47 1.48,3.81L1.95,3.34L1.96,3.34L3.54,1.76L3.63,1.67C3.02,1.19 2.36,0.76 1.66,0.41C1.36,0.26 1.06,0.12 0.75,0L0.71,0.14Z " />
      <path id="路径 12" fill-rule="evenodd" style="fill:#FF8D1A"
        transform="translate(5.839550890292771 8.577717560594499)  rotate(0 1.4958264928052407 1.2867324669292393)"
        opacity="1"
        d="M0.97,2.14L0.99,2.16L1.42,2.57C1.9,2.21 2.43,1.89 2.99,1.64L2.91,1.34L2.84,1.04L2.84,1.04L2.56,0C1.53,0.42 0.67,0.84 0,1.19L0.97,2.14Z " />
      <path id="分组 1" fill-rule="evenodd" style="fill:#FF8D1A"
        transform="translate(5.269712226366965 10.843285797009194)  rotate(0 6.870232278782903 6.870232278782903)"
        opacity="1"
        d="M0 6.87C0 10.67 3.07 13.74 6.87 13.74C10.67 13.74 13.74 10.67 13.74 6.87C13.74 3.07 10.67 0 6.87 0C3.07 0 0 3.07 0 6.87Z M3.35062 5.77855L5.18062 5.77855C5.25062 5.77855 5.30062 5.72855 5.30062 5.65855L5.30062 3.82855C5.30062 3.76855 5.25062 3.70855 5.18062 3.70855L3.35062 3.70855C3.29062 3.70855 3.23062 3.76855 3.23062 3.82855L3.23062 5.65855C3.23062 5.72855 3.29062 5.77855 3.35062 5.77855Z M9.90997 8.56596L4.08997 8.56596C4.08997 10.166 5.39997 11.476 6.99997 11.476C8.59997 11.476 9.90997 10.166 9.90997 8.56596Z M10.7646 3.82855C10.7646 3.76855 10.7146 3.70855 10.6446 3.70855L8.81464 3.70855C8.75464 3.70855 8.69464 3.76855 8.69464 3.82855L8.69464 5.65855C8.69464 5.72855 8.75464 5.77855 8.81464 5.77855L10.6446 5.77855C10.7146 5.77855 10.7646 5.72855 10.7646 5.65855L10.7646 3.82855Z " />
      <path id="路径 17" fill-rule="evenodd" style="fill:#FF8D1A"
        transform="translate(0 0)  rotate(0 6.568581083510016 4.736917407174395)" opacity="1"
        d="M4.67 8.64C3.99 9.02 3.56 9.3 3.39 9.42C3.34 9.46 3.31 9.47 3.31 9.47C3.32 9.41 3.27 9.23 3.18 8.99C2.92 8.17 2.31 6.67 2.31 6.67C2.09 6.07 1.14 5.52 0.82 5.28C0.75 5.33 0.67 5.37 0.58 5.37C0.29 5.4 0.04 5.19 0 4.91C-0.03 4.63 0.18 4.37 0.46 4.34C0.74 4.3 1 4.51 1.03 4.79C1.05 4.9 1.02 4.99 0.97 5.08C1.88 5.46 2.63 5.62 3.24 5.62L3.39 5.62C5.49 5.53 5.98 3.58 6.1 2.72C5.84 2.72 5.62 2.54 5.59 2.28C5.55 1.99 5.76 1.74 6.04 1.7C6.33 1.67 6.58 1.88 6.62 2.16C6.63 2.32 6.57 2.47 6.47 2.57C7.46 3.29 8.28 3.57 8.95 3.57L9.05 3.57C10.7 3.5 11.43 1.73 11.8 0.95C11.66 0.87 11.56 0.74 11.54 0.58C11.51 0.29 11.72 0.03 12 0C12.28 -0.03 12.54 0.17 12.57 0.46C12.6 0.74 12.4 1 12.12 1.03C12.0952 1.03619 12.0743 1.03088 12.0548 1.02594C12.0428 1.0229 12.0314 1.02 12.02 1.02C11.92 1.38 11.92 1.58 11.89 1.91C11.84 2.34 11.86 2.76 11.87 2.8C12.03 3.59 12.57 4.63 12.89 5.2C13.02 5.43 13.11 5.6 13.13 5.62L13.14 5.63C11.37 6.13 9.72 6.39 8.36 6.91C8.24 6.96 8.12 7.01 7.99 7.06C6.59 7.62 5.46 8.19 4.67 8.64Z" />
    </g>
  </g>
</svg>