<svg xmlns="http://www.w3.org/2000/svg" xmlns:xlink="http://www.w3.org/1999/xlink" width="30" height="30"
  viewBox="0 0 30 30" fill="none">
  <g opacity="1" transform="translate(-0.0000012207031261368684 -8.678632639202988e-7)  rotate(0 15 15)">
    <g opacity="1" transform="translate(0.5 1.1252024764000907)  rotate(0 14.5 13.874797523599925)">
      <path id="路径 1" fill-rule="evenodd" style="fill:#FF8D1A"
        transform="translate(4.17080318290132 1.234553552964049)  rotate(0 3.543616856758457 6.349378182022064)"
        opacity="1"
        d="M1.01,0.06C1.11,3.53 0.33,9.28 0,11.55C0.84,11.76 1.76,12.15 2.77,12.7C3.87,9.91 6.03,4.28 7.09,0.59C4.84,0.37 1.32,0.01 1.16,0C1.07,0 1.03,0 1.01,0L1.01,0C1.01,0 1.01,0.03 1.01,0.06Z " />
      <path id="路径 2" fill-rule="evenodd" style="fill:#FF8D1A"
        transform="translate(0 14.246607827086299)  rotate(0 6.225988942946056 6.747149178134733)" opacity="1"
        d="M0.19,3.72C0.42,4.31 2.66,9.61 10.68,13.22C11.1,13.34 11.85,13.51 12.45,13.49C9.28,11.69 7.33,8.66 7.33,5.43C7.33,4.62 7.45,3.81 7.69,3.03C7.7,2.92 7.72,2.8 7.75,2.68C7.78,2.55 7.81,2.43 7.84,2.3C7.85,2.27 7.86,2.23 7.87,2.2C7.78,2.14 7.68,2.08 7.58,2.01C7.46,1.93 7.33,1.85 7.19,1.76L7.19,1.76C7.07,1.68 6.94,1.6 6.81,1.53L6.65,1.43L5.47,0.8C3.93,0.06 2.7,-0.18 2.05,0.14C2,0.18 1.72,0.48 1.48,0.77L0.08,2.4C0.04,2.49 -0.13,2.91 0.19,3.72Z " />
      <path id="路径 3" style="fill:#FF8D1A"
        transform="translate(8.674348595196774 16.645943845092816)  rotate(0 0.005166233665171247 0.007163645936843516)"
        opacity="1" d="" />
      <path id="路径 4" fill-rule="evenodd" style="fill:#FF8D1A"
        transform="translate(9.042082419954726 16.65549537300861)  rotate(0 0.005166233665171247 0.005)" opacity="1"
        d="M0.01,0Z " />
      <path id="路径 5" fill-rule="evenodd" style="fill:#FF8D1A"
        transform="translate(8.402130049596728 0)  rotate(0 9.507529056730256 7.4322919443989)" opacity="1"
        d="M6.91,7L7.54,9.53C7.56,9.59 7.56,9.66 7.54,9.73C8.52,9.51 9.55,9.39 10.6,9.39C12.99,9.39 15.33,9.99 17.26,11.08C18.18,8.82 18.71,7.55 18.84,7.31C19.04,6.93 19.02,6.78 19.01,6.76L19.01,6.76C12.51,2.27 5.63,0.12 5.55,0.1L5.51,0.08C5.25,-0.02 5.09,-0.01 5.02,0.02C4.94,0.47 4.79,1.09 4.59,1.81C3.53,5.67 1.13,11.93 0,14.8C0.03,14.82 0.07,14.85 0.11,14.86C1.35,12.54 3.77,10.77 6.7,9.93C6.66,9.88 6.62,9.82 6.6,9.75L6.05,7.51L5.54,7.81L4.8,10.3C4.74,10.51 4.55,10.64 4.34,10.64C4.3,10.64 4.25,10.64 4.21,10.62C3.95,10.55 3.81,10.28 3.88,10.03L5.78,3.59C5.86,3.34 6.13,3.19 6.38,3.27C6.63,3.35 6.78,3.61 6.71,3.87L5.94,6.46L9.11,4.57C9.34,4.43 9.63,4.51 9.77,4.74C9.9,4.96 9.83,5.26 9.6,5.39L6.91,7Z " />
      <path id="分组 1" fill-rule="evenodd" style="fill:#FF8D1A"
        transform="translate(9.00387630829156 11.043972722481403)  rotate(0 9.99806184585422 8.352811162359224)"
        opacity="1"
        d="M0.5 5.74L0.49 5.77C0.46 5.87 0.44 5.97 0.42 6.07C0.38 6.22 0.35 6.36 0.33 6.51L0.31 6.62C0.1 7.3 0 7.96 0 8.62C0 10.79 1.06 12.83 2.97 14.36C3.38 14.69 3.82 14.99 4.29 15.25C4.59 15.42 4.9 15.57 5.2 15.71C6.66 16.36 8.32 16.71 10 16.71C15.51 16.71 20 13.08 20 8.62C20 7.96 19.9 7.3 19.7 6.66L19.69 6.66L19.67 6.57C19.43 4.95 18.54 3.5 17.09 2.33C16.98 2.24 16.87 2.15 16.76 2.07C16.65 1.99 16.54 1.91 16.42 1.83C14.65 0.65 12.36 0 9.99 0C5.71 0 1.98 2.07 0.71 5.14C0.67 5.23 0.64 5.32 0.61 5.41C0.57 5.52 0.53 5.63 0.5 5.74Z M9.79654 7.70085C9.56654 7.19085 9.48654 6.98085 9.11654 6.18085L8.37654 4.56085L6.35654 4.56085L8.59654 8.13085L7.09654 8.13085L7.09654 8.96085L8.95654 8.96085L8.95654 9.54085L7.09654 9.54085L7.09654 10.3709L8.95654 10.3709L8.95654 11.7809L10.6765 11.7809L10.6765 10.3709L12.5165 10.3709L12.5165 9.54085L10.6765 9.54085L10.6765 8.96085L12.5165 8.96085L12.5165 8.13085L12.5065 8.13085L10.9965 8.13085L13.2365 4.56085L11.2565 4.56085L10.5365 6.18085C10.2065 6.94085 10.0965 7.19085 9.85654 7.70085L9.79654 7.70085Z " />
    </g>
  </g>
</svg>