<svg xmlns="http://www.w3.org/2000/svg" xmlns:xlink="http://www.w3.org/1999/xlink" width="30" height="30"
  viewBox="0 0 30 30" fill="none">
  <defs>
    <linearGradient id="linear_0" x1="49.99999999999999%" y1="0%" x2="50%" y2="100%" gradientUnits="objectBoundingBox">
      <stop offset="0" stop-color="#FFEA4F" stop-opacity="1" />
      <stop offset="1" stop-color="#E8A333" stop-opacity="1" />
    </linearGradient>
    <linearGradient id="linear_1" x1="49.99999999999999%" y1="0%" x2="50%" y2="100%" gradientUnits="objectBoundingBox">
      <stop offset="0" stop-color="#FFEA4F" stop-opacity="1" />
      <stop offset="1" stop-color="#E8A333" stop-opacity="1" />
    </linearGradient>
  </defs>
  <g opacity="1" transform="translate(0 0.0000047778887051208585)  rotate(0 15 15)">
    <g opacity="1" transform="translate(1.9173846933603613 1.5)  rotate(0 13.082615306639635 13.5)">

      <path id="路径 1" fill-rule="evenodd" fill="url(#linear_0)"
        transform="translate(10.299107916446227 18.722028510739666)  rotate(0 3.059529651231379 1.2971205647011241)"
        opacity="1"
        d="M3.3,2.56C4.6,2.41 5.7,1.5 6.11,0.25C6.14,0.16 6.1,0.06 6,0.02C5.92,-0.02 5.81,0.01 5.76,0.09C5.75,0.1 5.24,0.93 3.23,1.21C2.93,1.25 2.64,1.27 2.36,1.27C0.95,1.27 0.33,0.74 0.32,0.73C0.25,0.67 0.14,0.67 0.07,0.73C0,0.79 -0.02,0.9 0.03,0.98C0.64,1.97 1.74,2.59 2.89,2.59L2.9,2.59C3.03,2.59 3.17,2.58 3.3,2.56Z " />
      <path id="分组 1" fill-rule="evenodd" fill="url(#linear_1)"
        transform="translate(0 0)  rotate(0 13.082615306639635 13.5)" opacity="1"
        d="M23.55 17.4C22.64 21.53 18.95 24.12 14.39 24.51C14.11 23.83 13.44 23.35 12.65 23.35C11.61 23.35 10.78 24.16 10.78 25.18C10.78 26.19 11.62 27 12.65 27C13.48 27 14.18 26.47 14.42 25.73C19.71 25.3 23.95 22.16 24.83 17.27C25.61 16.95 26.17 16.18 26.17 15.29L26.17 11.03C26.17 9.83 25.19 8.87 23.99 8.87L23.98 8.88C23.98 8.88 23.95 8.88 23.93 8.88C22.76 3.8 18.27 0 12.89 0C7.5 0 2.76 4.01 1.74 9.3C0.75 9.48 0 10.35 0 11.4L0 15.61C0 16.79 0.94 17.75 2.12 17.75C2.78 17.75 3.36 17.44 3.75 16.96C4.68 19.43 6.58 21.43 9 22.48C9 22.47 9.05 22.38 9.1 22.31C9.14 22.26 9.18 22.21 9.22 22.21C9.25 22.21 9.28 22.23 9.31 22.24C8.73 21.81 6.74 19.68 6.31 16.72C6.12 15.41 7.1 14.12 8.24 13.91C10.08 13.57 11.91 13.18 13.74 12.85C14.91 12.63 15.71 11.99 16.19 10.92C16.31 10.67 16.47 10.17 16.55 9.45C16.57 9.34 16.66 9.26 16.77 9.26C16.85 9.26 16.91 9.29 16.96 9.35L17.01 9.32C17.73 10.37 19.16 12.69 19.37 15.15C19.61 17.95 19.47 19.87 17.32 21.84C17.32 21.84 17.32 21.85 17.32 21.85C17.28 21.88 17.27 21.92 17.27 21.97C17.27 22.03 17.3 22.08 17.35 22.11C17.37 22.12 17.38 22.13 17.4 22.13C17.42 22.13 17.43 22.14 17.44 22.14C17.46 22.14 17.47 22.14 17.48 22.13C17.52 22.11 17.54 22.1 17.58 22.08C19.75 20.89 21.41 18.89 22.18 16.49C22.49 16.95 22.98 17.28 23.55 17.4Z M9.32 22.25C9.32 22.25 9.31 22.25 9.31 22.24C9.31 22.25 9.32 22.25 9.32 22.25Z M22.037 10.1057C22.097 9.98569 22.167 9.87569 22.247 9.76569C21.437 5.26569 17.577 1.86569 12.887 1.86569C8.19698 1.86569 4.29698 5.30569 3.51698 9.82569C3.59698 9.90569 3.67698 9.97569 3.74698 10.0557C5.13698 6.34569 8.66698 3.69569 12.877 3.69569C17.087 3.69569 20.657 6.36569 22.037 10.1057L22.037 10.1057Z " />
    </g>
  </g>
</svg>