<svg xmlns="http://www.w3.org/2000/svg" xmlns:xlink="http://www.w3.org/1999/xlink" width="30" height="30"
  viewBox="0 0 30 30" fill="none">
  <defs>
    <linearGradient id="linear_0" x1="49.99999999999999%" y1="0%" x2="50%" y2="100%" gradientUnits="objectBoundingBox">
      <stop offset="0" stop-color="#FFEA4F" stop-opacity="1" />
      <stop offset="1" stop-color="#E8A333" stop-opacity="1" />
    </linearGradient>
    <linearGradient id="linear_1" x1="49.99999999999999%" y1="0%" x2="50%" y2="100%" gradientUnits="objectBoundingBox">
      <stop offset="0" stop-color="#FFEA4F" stop-opacity="1" />
      <stop offset="1" stop-color="#E7A133" stop-opacity="1" />
    </linearGradient>
    <linearGradient id="linear_2" x1="49.99999999999999%" y1="0%" x2="50%" y2="100%" gradientUnits="objectBoundingBox">
      <stop offset="0" stop-color="#FFEA4F" stop-opacity="1" />
      <stop offset="1" stop-color="#E8A333" stop-opacity="1" />
    </linearGradient>
  </defs>
  <g opacity="1" transform="translate(0 0)  rotate(0 15.000000000000002 15)">
    <g opacity="1" transform="translate(1 0.9999999999999982)  rotate(0 14.000000000000018 14.000000000000002)">
      <path id="分组 3" fill-rule="evenodd" fill="url(#linear_0)"
        transform="translate(9.435517630011304 0)  rotate(0 9.282241184994366 7.6267310789049905)" opacity="1"
        d="M0 0L0.18 0.52L2.43 7.21L3.5 10.4L17.97 15.06L18.56 15.25L13.7 5.61L13.7 5.61L0 0Z M4.93394 4.25092C5.13394 3.87092 4.53394 3.22092 3.59394 2.79092C2.64394 2.36092 1.71394 2.31092 1.51394 2.68092C1.30394 3.06091 1.91394 3.71092 2.85394 4.14091C3.80394 4.57092 4.73394 4.62092 4.93394 4.25092Z M5.74566 7.83858C4.80566 7.39858 3.87566 7.35858 3.66566 7.72858C3.46566 8.09858 4.06566 8.75858 5.00566 9.18858C5.95566 9.61858 6.87566 9.66858 7.08566 9.28858C7.28566 8.91858 6.68566 8.26858 5.74566 7.83858Z M11.1548 7.55454C12.1048 7.98454 13.0248 8.03454 13.2348 7.66454C13.4348 7.28454 12.8348 6.63454 11.8948 6.20454C10.9448 5.77454 10.0148 5.72454 9.81475 6.09454C9.61475 6.47454 10.2148 7.11454 11.1548 7.55454Z M13.7746 11.0804C12.8246 10.6404 11.8946 10.6004 11.6946 10.9704C11.4946 11.3404 12.0946 12.0004 13.0346 12.4304C13.9846 12.8604 14.9046 12.9104 15.1146 12.5304C15.3146 12.1604 14.7146 11.5104 13.7746 11.0804Z " />
      <path id="分组 4" fill-rule="evenodd" fill="url(#linear_1)"
        transform="translate(4.530671389470285 11.213526570048316)  rotate(0 11.721139913057481 8.393236714975844)"
        opacity="1"
        d="M8.22 0L0.25 11.34L0 11.69L13.56 16.79L23.44 4.91L23 4.76L8.22 0Z M11.1729 9.93752C10.0229 9.93752 9.0929 10.6575 9.0929 11.5475C9.0929 12.4275 10.0229 13.1475 11.1729 13.1475C12.3329 13.1475 13.2629 12.4275 13.2629 11.5475C13.2629 10.6575 12.3229 9.93752 11.1729 9.93752Z M6.84334 5.03673C6.84334 5.91673 7.76334 6.63673 8.92334 6.63673C10.0733 6.63673 11.0033 5.91673 11.0033 5.03673C11.0033 4.14673 10.0733 3.42673 8.92334 3.42673C7.77334 3.42673 6.84334 4.14673 6.84334 5.03673Z " />
      <path id="分组 5" fill-rule="evenodd" fill="url(#linear_2)"
        transform="translate(0 0.2344605475039998)  rotate(0 6.038641120592496 11.012882447665053)" opacity="1"
        d="M8.74 0.51L8.57 0L0 12.14L3.91 22.03L4.22 21.59L12.08 10.42L11.04 7.32L8.74 0.51Z M6.08545 9.09446C5.53545 8.89446 4.75545 9.48446 4.34545 10.4145C3.93545 11.3445 4.05545 12.2645 4.61545 12.4645C5.16545 12.6745 5.93545 12.0745 6.34545 11.1445C6.75545 10.2145 6.63545 9.29446 6.08545 9.09446Z " />
    </g>
  </g>
</svg>