<svg xmlns="http://www.w3.org/2000/svg" xmlns:xlink="http://www.w3.org/1999/xlink" width="22" height="22" viewBox="0 0 22 22" fill="none"><defs><linearGradient id="linear_0" x1="49.99999999999999%" y1="0%" x2="50%" y2="100%" gradientUnits="objectBoundingBox"><stop offset="0" stop-color="#FFEA4F" stop-opacity="1" /><stop offset="1" stop-color="#E8A333" stop-opacity="1" /></linearGradient><linearGradient id="linear_1" x1="49.99999999999999%" y1="0%" x2="50%" y2="100%" gradientUnits="objectBoundingBox"><stop offset="0" stop-color="#FFEA4F" stop-opacity="1" /><stop offset="1" stop-color="#E8A333" stop-opacity="1" /></linearGradient><linearGradient id="linear_2" x1="49.99999999999999%" y1="0%" x2="50%" y2="100%" gradientUnits="objectBoundingBox"><stop offset="0" stop-color="#FFEA4F" stop-opacity="1" /><stop offset="1" stop-color="#E8A333" stop-opacity="1" /></linearGradient><linearGradient id="linear_3" x1="49.99999999999999%" y1="0%" x2="50%" y2="100%" gradientUnits="objectBoundingBox"><stop offset="0" stop-color="#FFEA4F" stop-opacity="1" /><stop offset="1" stop-color="#E8A333" stop-opacity="1" /></linearGradient><linearGradient id="linear_4" x1="49.99999999999999%" y1="0%" x2="50%" y2="100%" gradientUnits="objectBoundingBox"><stop offset="0" stop-color="#FFEA4F" stop-opacity="1" /><stop offset="1" stop-color="#E8A333" stop-opacity="1" /></linearGradient><linearGradient id="linear_5" x1="49.99999999999999%" y1="0%" x2="50%" y2="100%" gradientUnits="objectBoundingBox"><stop offset="0" stop-color="#FFEA4F" stop-opacity="1" /><stop offset="1" stop-color="#E8A333" stop-opacity="1" /></linearGradient><linearGradient id="linear_6" x1="49.99999999999999%" y1="0%" x2="50%" y2="100%" gradientUnits="objectBoundingBox"><stop offset="0" stop-color="#FFEA4F" stop-opacity="1" /><stop offset="1" stop-color="#E8A333" stop-opacity="1" /></linearGradient></defs><g opacity="1" transform="translate(0.0000061035156022626325 0)  rotate(0 11 11)"><g opacity="0.8" transform="translate(1.2884386174016527 0.5)  rotate(0 9.71156138259832 10.5)"><path id="路径 23" fill-rule="evenodd" fill="url(#linear_0)" transform="translate(0.7481128327374328 3.9241160111243563)  rotate(0 6.986094557012335 8.536551450139056)" opacity="1" d="M1.55,16.3C1.55,15.61 3.23,14.7 6.35,14.36C6.75,14.32 7.05,13.99 7.05,13.59L7.05,12.27C7.05,12 6.91,11.75 6.69,11.61L6.68,11.61C4.82,10.43 4.67,7.98 4.67,5.42C4.67,2.85 5.94,1.55 8.45,1.55L8.63,1.55C11.14,1.55 12.42,2.85 12.42,5.42C12.42,5.65 12.42,5.89 12.41,6.14C12.4,6.57 12.73,6.92 13.17,6.93C13.6,6.94 13.95,6.61 13.96,6.18C13.97,5.92 13.97,5.67 13.97,5.42C13.97,2.02 11.98,0 8.64,0L8.45,0C5.11,0 3.12,2.03 3.12,5.42C3.12,7.47 3.12,10.85 5.5,12.67L5.5,12.9C1.99,13.39 0,14.61 0,16.3C0,16.73 0.35,17.07 0.78,17.07C1.2,17.07 1.55,16.72 1.55,16.3Z " /><path id="路径 24" fill-rule="evenodd" fill="url(#linear_1)" transform="translate(9.319103721335651 10.908859623586963)  rotate(0 3.878146581391085 1.5580850868954343)" opacity="1" d="M0.02,2.1C-0.07,2.5 0.16,2.89 0.55,3C0.57,3.01 1.37,3.12 2.44,3.12C4.26,3.12 6.87,2.8 7.68,1.11C7.87,0.73 7.7,0.26 7.31,0.08C6.93,-0.11 6.46,0.06 6.28,0.44C5.76,1.52 2.81,1.7 0.87,1.49C0.47,1.45 0.1,1.71 0.02,2.1L0.02,2.1Z " /><path id="路径 25" fill-rule="evenodd" fill="url(#linear_2)" transform="translate(10.86015097338106 15.412793007548665)  rotate(0 3.5236476047292764 2.7936034962256673)" opacity="1" d="M1.55 0.78C1.55 0.35 1.2 0 0.78 0C0.35 0 0 0.34 0 0.78L0 2.11C0 2.5 0.3 2.84 0.7 2.88C3.82 3.21 5.5 4.12 5.5 4.81C5.5 5.24 5.85 5.59 6.28 5.59C6.71 5.59 7.05 5.24 7.05 4.81C7.05 3.12 5.06 1.9 1.55 1.42L1.55 0.78Z" /><path id="路径 26" fill-rule="evenodd" fill="url(#linear_3)" transform="translate(0.7508939213349353 3.924116011124353)  rotate(0 6.986094557012335 8.536551450139056)" opacity="1" d="M12.42 5.42C12.42 5.66 12.42 5.89 12.41 6.14C12.4 6.57 12.73 6.92 13.17 6.93C13.6 6.95 13.95 6.61 13.96 6.18C13.97 5.92 13.97 5.67 13.97 5.42C13.97 2.03 11.98 0 8.64 0L8.45 0C5.11 0 3.12 2.02 3.12 5.42C3.12 7.47 3.12 10.85 5.5 12.67L5.5 12.9C1.99 13.39 0 14.61 0 16.3C0 16.73 0.35 17.07 0.78 17.07C1.2 17.07 1.55 16.72 1.55 16.3C1.55 15.61 3.23 14.69 6.35 14.36C6.75 14.32 7.05 13.99 7.05 13.59L7.05 12.27C7.05 12 6.91 11.75 6.69 11.61C4.83 10.42 4.67 7.9 4.67 5.42C4.67 2.94 5.95 1.55 8.46 1.55L8.63 1.55C11.14 1.55 12.42 2.85 12.42 5.42Z" /><path id="路径 27" fill-rule="evenodd" fill="url(#linear_4)" transform="translate(10.862932061978595 15.410011918951135)  rotate(0 3.5250380828751635 2.7936034962256673)" opacity="1" d="M0,2.11C0,2.5 0.3,2.84 0.7,2.88C3.82,3.21 5.5,4.12 5.5,4.81C5.5,5.24 5.85,5.59 6.28,5.59C6.71,5.59 7.05,5.24 7.05,4.81C7.05,3.12 5.06,1.9 1.55,1.42L1.55,1.42L1.55,0.78C1.55,0.34 1.2,0 0.78,0C0.35,0 0,0.35 0,0.78L0,2.11Z " /><path id="路径 28" fill-rule="evenodd" fill="url(#linear_5)" transform="translate(9.324665898530752 10.909959659984573)  rotate(0 3.877362448235983 1.5603161572941686)" opacity="1" d="M7.31,0.08C6.92,-0.11 6.46,0.06 6.28,0.44C5.76,1.52 2.8,1.71 0.87,1.49C0.46,1.45 0.1,1.71 0.02,2.11C-0.07,2.5 0.16,2.89 0.55,3.01C0.57,3.01 1.37,3.12 2.44,3.12C4.26,3.12 6.87,2.8 7.68,1.12L7.68,1.11C7.87,0.73 7.7,0.26 7.31,0.08Z " /><path id="路径 29" fill-rule="evenodd" fill="url(#linear_6)" transform="translate(0 0)  rotate(0 9.71156138259832 6.60786650774732)" opacity="1" d="M0.32,8.55C0.13,8.68 0.02,8.89 0,9.12L0,12.48C0.02,12.89 0.36,13.22 0.77,13.22L0.78,13.21C1.21,13.21 1.55,12.87 1.55,12.44L1.55,9.57L2.01,9.25C2.21,9.1 2.33,8.87 2.33,8.62C2.33,4.72 5.47,1.55 9.32,1.55C13.18,1.55 16.31,4.72 16.31,8.62C16.31,8.94 16.52,9.24 16.83,9.35L17.87,9.72L17.87,12.44C17.87,12.87 18.22,13.21 18.65,13.21C19.08,13.21 19.42,12.87 19.42,12.44L19.42,9.17C19.42,8.85 19.21,8.55 18.91,8.44L17.85,8.07C17.57,3.57 13.85,0 9.32,0C4.79,0 1,3.65 0.78,8.22L0.32,8.55Z " /></g></g></svg>