<svg xmlns="http://www.w3.org/2000/svg" xmlns:xlink="http://www.w3.org/1999/xlink" width="30" height="30"
  viewBox="0 0 30 30" fill="none">
  <defs>
    <linearGradient id="linear_0" x1="49.99999999999999%" y1="0%" x2="50%" y2="100%" gradientUnits="objectBoundingBox">
      <stop offset="0" stop-color="#FFEA4F" stop-opacity="1" />
      <stop offset="1" stop-color="#E69E32" stop-opacity="1" />
    </linearGradient>
    <linearGradient id="linear_1" x1="49.99999999999999%" y1="0%" x2="50%" y2="100%" gradientUnits="objectBoundingBox">
      <stop offset="0" stop-color="#FFEA4F" stop-opacity="1" />
      <stop offset="1" stop-color="#E69E32" stop-opacity="1" />
    </linearGradient>
    <linearGradient id="linear_2" x1="49.99999999999999%" y1="0%" x2="50%" y2="100%" gradientUnits="objectBoundingBox">
      <stop offset="0" stop-color="#FFEA4F" stop-opacity="1" />
      <stop offset="1" stop-color="#E69E32" stop-opacity="1" />
    </linearGradient>
    <linearGradient id="linear_3" x1="49.99999999999999%" y1="0%" x2="50%" y2="100%" gradientUnits="objectBoundingBox">
      <stop offset="0" stop-color="#FFEA4F" stop-opacity="1" />
      <stop offset="1" stop-color="#E69E32" stop-opacity="1" />
    </linearGradient>
    <linearGradient id="linear_4" x1="49.99999999999999%" y1="0%" x2="50%" y2="100%" gradientUnits="objectBoundingBox">
      <stop offset="0" stop-color="#FFEA4F" stop-opacity="1" />
      <stop offset="1" stop-color="#E69E32" stop-opacity="1" />
    </linearGradient>
  </defs>
  <g opacity="1" transform="translate(0 0)  rotate(0 15 15)">
    <g opacity="1" transform="translate(0 0)  rotate(0 15 12.599999999999994)">
      <path id="路径 18" fill-rule="evenodd" fill="url(#linear_0)"
        transform="translate(0 19.84848708487084)  rotate(0 15 2.675756457564575)" opacity="1"
        d="M0,2.38C0,4.02 5.61,5.35 15,5.35C24.39,5.35 30,4.02 30,2.38C30,1.41 29,0.7 25.22,0C24.85,0.53 24.45,1.03 24,1.49C24.93,1.74 25.46,2.03 25.46,2.34C25.46,2.9 23.78,3.38 21.2,3.69C19.47,3.9 17.32,4.02 15,4.02C12.68,4.02 10.53,3.89 8.8,3.69C6.21,3.38 4.54,2.9 4.54,2.34C4.54,2.04 5.07,1.74 6,1.49C5.56,1.03 5.15,0.53 4.78,0C1,0.7 0,1.4 0,2.38Z " />
      <g opacity="1" transform="translate(2.502578018995905 0)  rotate(0 12.499728629579378 11.932804428044278)">
        <g opacity="1"
          transform="translate(12.326729986431474 9.183982555685589)  rotate(0 1.0956580732700136 3.0546863468634555)">
          <path id="路径 15" fill-rule="evenodd" fill="url(#linear_1)"
            transform="translate(0 0)  rotate(0 0.9872455902306653 0.47424354243542405)" opacity="1"
            d="M0.47,0L0,0L0,0.95L1.97,0.95C1.86,0.57 1.69,0.32 1.46,0.19C1.22,0.07 0.89,0 0.47,0Z " />
          <path id="路径 16" fill-rule="evenodd" fill="url(#linear_2)"
            transform="translate(0 5.160885608856063)  rotate(0 1.0241519674355493 0.47424354243542405)" opacity="1"
            d="M0.58,0.95C0.99,0.95 1.31,0.89 1.54,0.77C1.77,0.65 1.94,0.39 2.05,0L0,0L0,0.95L0,0.95L0.58,0.95Z " />
          <path id="路径 17" fill-rule="evenodd" fill="url(#linear_3)"
            transform="translate(0 2.5014022140221073)  rotate(0 1.0956580732700136 0.5463099630996312)" opacity="1"
            d="M0,1.09L2.19,1.09L2.19,0.41C2.19,0.27 2.19,0.13 2.17,0L0,0L0,1.09Z " />
        </g>
        <path id="分组 8" fill-rule="evenodd" fill="url(#linear_4)"
          transform="translate(0 0)  rotate(0 12.499728629579378 11.932804428044278)" opacity="1"
          d="M12.5 23.87C14.82 23.87 16.96 23.74 18.7 23.54C19.73 22.94 20.67 22.2 21.49 21.34C21.94 20.88 22.35 20.37 22.72 19.85C24.15 17.8 25 15.3 25 12.6C25 5.64 19.4 0 12.5 0C5.59 0 0 5.64 0 12.6C0 15.3 0.84 17.8 2.28 19.85C2.65 20.38 3.06 20.88 3.5 21.34C4.32 22.2 5.26 22.94 6.3 23.54C8.03 23.74 10.18 23.87 12.5 23.87Z M14.6362 16.8048C15.1262 16.7048 15.5562 16.5248 15.9162 16.2848C16.2662 16.0448 16.5662 15.7148 16.8062 15.3148C17.0462 14.9148 17.2162 14.4148 17.3262 13.8148L18.6762 13.8148L18.6762 12.2548L17.4662 12.2548L17.4662 11.5448C17.4662 11.4248 17.4662 11.2948 17.4462 11.1548L18.6762 11.1548L18.6762 11.1548L18.6762 9.61483L17.2862 9.61483C17.0462 8.43483 16.5962 7.62483 15.9062 7.14483C15.2162 6.67483 14.2462 6.43483 12.9762 6.43483L9.4062 6.43483L9.4062 9.61483L8.3962 9.61483L8.3962 11.1548L9.4062 11.1548L9.4062 12.2548L8.3962 12.2548L8.3962 13.8148L9.4062 13.8148L9.4062 19.0948L12.3262 19.0948L12.3262 16.9548L12.9762 16.9548C13.5862 16.9548 14.1462 16.9048 14.6362 16.8048Z " />
        <path id="路径 21" style="stroke:#000000; stroke-width:1.5; stroke-opacity:1; stroke-dasharray:0 0"
          transform="translate(2.648032564450432 2.8361623616236216)  rotate(0 9.863229308005428 9.94051660516605)"
          d="M9.86,0C4.42,0 0,4.45 0,9.94C0,15.43 4.42,19.88 9.86,19.88C15.31,19.88 19.73,15.43 19.73,9.94C19.73,4.45 15.31,0 9.86,0Z " />
      </g>
    </g>
  </g>
</svg>