<svg xmlns="http://www.w3.org/2000/svg" xmlns:xlink="http://www.w3.org/1999/xlink" width="22" height="22" viewBox="0 0 22 22" fill="none"><defs><linearGradient id="linear_0" x1="49.99999999999999%" y1="0%" x2="50%" y2="100%" gradientUnits="objectBoundingBox"><stop offset="0" stop-color="#FFEA4F" stop-opacity="1" /><stop offset="1" stop-color="#E8A333" stop-opacity="1" /></linearGradient></defs><g opacity="1" transform="translate(0.0000061035156022626325 0)  rotate(0 11 10.999999999999998)"><path id="分组 5" fill-rule="evenodd" fill="url(#linear_0)" transform="translate(0 2.7466274221241065)  rotate(0 11 8.253372577875888)" opacity="0.8" d="M21.14 9.75Z M22 8.91L22 3.38C22 1.52 20.46 0 18.56 0L3.44 0C1.54 0 0 1.51 0 3.38L0 13.13C0 14.99 1.54 16.51 3.44 16.51L18.56 16.51C20.46 16.51 22 14.99 22 13.13C22 12.66 21.61 12.29 21.14 12.29C20.66 12.29 20.28 12.66 20.28 13.13C20.28 14.06 19.51 14.82 18.56 14.82L3.43 14.82C2.49 14.82 1.72 14.06 1.72 13.13L1.72 3.55L9.18 8.11C9.74 8.46 10.37 8.63 11 8.63C11.63 8.63 12.25 8.46 12.82 8.11L20.28 3.55L20.28 8.9C20.28 9.37 20.67 9.75 21.14 9.75C21.61 9.75 22 9.37 22 8.91Z M11.901 6.67894L19.561 2.00894C19.271 1.79894 18.921 1.68894 18.561 1.68894L3.43095 1.68894C3.07095 1.68894 2.72095 1.79894 2.43095 2.00894L10.091 6.67894C10.651 7.02894 11.341 7.02894 11.901 6.67894L11.901 6.67894Z " /></g></svg>