<svg width="23" height="22" viewBox="0 0 23 22" fill="none" xmlns="http://www.w3.org/2000/svg">
<g id="Mail" clip-path="url(#clip0_152_223)">
<path id="&#229;&#136;&#134;&#231;&#187;&#132; 5" opacity="0.8" fill-rule="evenodd" clip-rule="evenodd" d="M0.400024 15.8766V6.12658C0.400024 4.25658 1.94002 2.74658 3.84002 2.74658H18.96C20.86 2.74658 22.4 4.26658 22.4 6.12658V11.6566V15.8766C22.4 17.7366 20.86 19.2566 18.96 19.2566H3.84002C1.94002 19.2566 0.400024 17.7366 0.400024 15.8766ZM20.68 15.8766V11.6466V6.29658L13.22 10.8566C12.65 11.2066 12.03 11.3766 11.4 11.3766C10.77 11.3766 10.14 11.2066 9.58002 10.8566L2.12002 6.29658V15.8766C2.12002 16.8066 2.89002 17.5666 3.83002 17.5666H18.96C19.91 17.5666 20.68 16.8066 20.68 15.8766ZM19.961 4.75552L12.301 9.42552C11.741 9.77552 11.051 9.77552 10.491 9.42552L2.83098 4.75552C3.12098 4.54552 3.47098 4.43552 3.83098 4.43552H18.961C19.321 4.43552 19.671 4.54552 19.961 4.75552Z" fill="url(#paint0_linear_152_223)"/>
</g>
<defs>
<linearGradient id="paint0_linear_152_223" x1="0.400024" y1="2.74658" x2="0.400024" y2="19.2566" gradientUnits="userSpaceOnUse">
<stop stop-color="#FFEA4F"/>
<stop offset="1" stop-color="#E8A333"/>
</linearGradient>
<clipPath id="clip0_152_223">
<rect width="22" height="22" fill="white" transform="translate(0.400024)"/>
</clipPath>
</defs>
</svg>
