<svg xmlns="http://www.w3.org/2000/svg" xmlns:xlink="http://www.w3.org/1999/xlink" width="22" height="22" viewBox="0 0 22 22" fill="none"><defs><linearGradient id="linear_0" x1="49.99999999999999%" y1="0%" x2="50%" y2="100%" gradientUnits="objectBoundingBox"><stop offset="0" stop-color="#FFEA4F" stop-opacity="1" /><stop offset="1" stop-color="#E8A333" stop-opacity="1" /></linearGradient><linearGradient id="linear_1" x1="49.99999999999999%" y1="0%" x2="50%" y2="100%" gradientUnits="objectBoundingBox"><stop offset="0" stop-color="#FFEA4F" stop-opacity="1" /><stop offset="1" stop-color="#E8A333" stop-opacity="1" /></linearGradient><linearGradient id="linear_2" x1="49.99999999999999%" y1="0%" x2="50%" y2="100%" gradientUnits="objectBoundingBox"><stop offset="0" stop-color="#FFEA4F" stop-opacity="1" /><stop offset="1" stop-color="#E8A333" stop-opacity="1" /></linearGradient><linearGradient id="linear_3" x1="49.99999999999999%" y1="0%" x2="50%" y2="100%" gradientUnits="objectBoundingBox"><stop offset="0" stop-color="#FFEA4F" stop-opacity="1" /><stop offset="1" stop-color="#E8A333" stop-opacity="1" /></linearGradient></defs><g opacity="1" transform="translate(0.0000061035156022626325 0)  rotate(0 11 10.999999999999998)"><g opacity="0.8" transform="translate(1 1.9778305621535992)  rotate(0 10 9.02216943784639)"><path id="分组 8" fill-rule="evenodd" fill="url(#linear_0)" transform="translate(15.40248086566379 9.007653734494625)  rotate(0 1.282660332541571 1.2826603325415675)" opacity="1" d="M0 1.28C0 1.99 0.58 2.57 1.28 2.57C1.99 2.57 2.57 1.99 2.57 1.28C2.57 0.58 1.99 0 1.28 0C0.58 0 0 0.58 0 1.28Z M1.62956 1.27692C1.62956 1.08692 1.46956 0.936923 1.27956 0.936923C1.08956 0.936923 0.939562 1.09692 0.939562 1.27692C0.939562 1.46692 1.09956 1.62692 1.27956 1.62692C1.46956 1.62692 1.62956 1.46692 1.62956 1.27692Z " /><path id="路径 13" fill-rule="evenodd" fill="url(#linear_1)" transform="translate(2.422802850356277 0)  rotate(0 7.574557930852463 0.9105304829770389)" opacity="1" d="M14.24,1.82C14.74,1.82 15.15,1.41 15.15,0.91C15.15,0.41 14.74,0 14.24,0L0.91,0C0.41,0 0,0.41 0,0.91C0,1.41 0.41,1.82 0.91,1.82L14.24,1.82Z " /><path id="分组 7" fill-rule="evenodd" fill="url(#linear_2)" transform="translate(0 2.6972816046450134)  rotate(0 10 7.673528635523883)" opacity="1" d="M3.35 0C1.5 0 0 1.5 0 3.35L0 11.99C0 13.84 1.5 15.35 3.35 15.35L16.65 15.35C18.5 15.35 20 13.84 20 11.99L20 3.35C20 1.5 18.5 0 16.65 0L3.35 0Z M18.5077 7.66723C18.5077 6.52723 17.5777 5.58723 16.4277 5.58723L15.1177 5.58723C13.9677 5.58723 13.0377 6.51723 13.0377 7.66723C13.0377 8.82723 13.9677 9.75723 15.1177 9.75723L16.4277 9.75723C17.5777 9.75723 18.5077 8.81723 18.5077 7.66723Z M16.6474 1.46741L3.35741 1.46741C2.31741 1.46741 1.46741 2.31741 1.46741 3.35741L1.46741 11.9974C1.46741 13.0374 2.31741 13.8774 3.35741 13.8774L16.6474 13.8774C17.6874 13.8774 18.5374 13.0374 18.5374 11.9974L18.5374 10.5274C17.9274 10.9774 17.1974 11.2274 16.4274 11.2274L15.1274 11.2274C13.1674 11.2274 11.5774 9.63741 11.5774 7.67741C11.5774 7.67741 11.5774 7.67741 11.5774 7.67741L11.5774 7.67741C11.5774 7.67741 11.5774 7.67741 11.5774 7.67741C11.5774 5.71741 13.1674 4.12741 15.1274 4.12741L16.4274 4.12741C17.1974 4.12741 17.9274 4.36741 18.5374 4.81741L18.5374 3.35741C18.5374 2.31741 17.6874 1.46741 16.6474 1.46741Z M11.5774 7.67741L11.5774 7.67741C11.5774 7.67741 11.5774 7.67741 11.5774 7.67741C11.5774 7.67741 11.5774 7.67741 11.5774 7.67741Z " /><path id="分组 9" fill-rule="evenodd" fill="url(#linear_3)" transform="translate(3.240000000000009 7.6200000000000045)  rotate(0 2.5000000000000004 3.0000000000000164)" opacity="1" d="M5 2.76L4.41 2.76L4.41 2.42C4.41 2.36 4.41 2.3 4.4 2.24L5 2.24L5 1.5L4.32 1.5C4.21 0.95 3.99 0.56 3.65 0.34L3.65 0.34C3.31 0.11 2.84 0 2.22 0L0.49 0L0.49 1.51L0 1.51L0 2.24L0.49 2.24L0.49 2.76L0 2.76L0 3.5L0.49 3.5L0.49 6L1.91 6L1.91 4.99L2.23 4.99C2.53 4.99 2.79 4.96 3.03 4.91C3.27 4.87 3.48 4.78 3.65 4.67C3.83 4.55 3.97 4.4 4.09 4.21C4.2 4.02 4.28 3.78 4.34 3.5L5 3.5L5 2.76Z M2.09889 1.05323L2.09889 1.50323L3.05889 1.50323C3.00889 1.32323 2.91889 1.20323 2.80889 1.14323C2.68889 1.08323 2.52889 1.05323 2.32889 1.05323L2.09889 1.05323L2.09889 1.05323Z M3.08889 3.49943L2.09889 3.49943L2.09889 3.94943L2.37889 3.94943C2.57889 3.94943 2.73889 3.91943 2.84889 3.85943C2.95889 3.80943 3.03889 3.67943 3.08889 3.49943Z M3.16889 2.42896C3.16889 2.36896 3.15889 2.29896 3.14889 2.23896L2.09889 2.23896L2.09889 2.75896L3.16889 2.75896L3.16889 2.64896L3.16889 2.42896Z " /></g></g></svg>