<svg xmlns="http://www.w3.org/2000/svg" xmlns:xlink="http://www.w3.org/1999/xlink" width="22" height="22" viewBox="0 0 22 22" fill="none"><defs><linearGradient id="linear_0" x1="49.99999999999999%" y1="0%" x2="50%" y2="100%" gradientUnits="objectBoundingBox"><stop offset="0" stop-color="#FFEA4F" stop-opacity="1" /><stop offset="1" stop-color="#E8A333" stop-opacity="1" /></linearGradient><linearGradient id="linear_1" x1="49.99999999999999%" y1="0%" x2="50%" y2="100%" gradientUnits="objectBoundingBox"><stop offset="0" stop-color="#FFEA4F" stop-opacity="1" /><stop offset="1" stop-color="#E8A333" stop-opacity="1" /></linearGradient></defs><g opacity="1" transform="translate(0.0000061035156022626325 -0.000002441406195430318)  rotate(0 11 11)"><g opacity="0.8" transform="translate(1.045604201206345 1)  rotate(0 9.954395798793628 9.999999999999998)"><path id="分组 3" fill-rule="evenodd" fill="url(#linear_0)" transform="translate(0 0)  rotate(0 9.954395798793628 9.999999999999998)" opacity="1" d="M19.5 19.8C19.76 19.67 19.91 19.4 19.91 19.08L19.91 0.9C19.91 0.4 19.5 0 19.01 0L0.9 0C0.4 0 0 0.4 0 0.9L0 19.08C0 19.41 0.15 19.67 0.4 19.8L0.43 19.82C0.63 19.99 0.95 20.05 1.22 19.96L9.96 16.93L18.68 19.96C18.76 20 18.91 20 18.99 20C19.2 20 19.36 19.94 19.47 19.82L19.5 19.8Z M18.1011 1.96805L1.8211 1.96805L1.8211 17.768L9.6611 15.118C9.7311 15.078 9.8811 15.078 9.9611 15.078C10.0411 15.078 10.1911 15.078 10.2811 15.118L18.1011 17.768L18.1011 1.96805Z " /><path id="路径 7" fill-rule="evenodd" fill="url(#linear_1)" transform="translate(3.7366705199636487 4.006949356730689)  rotate(0 6.191484615066184 4.084359314833865)" opacity="1" d="M9.14 3.37C8.86 3.37 8.65 3.51 8.49 3.77L7.57 5.68L5.6 0.46C5.49 0.19 5.23 0 4.96 0C4.68 0 4.42 0.15 4.28 0.39L2.82 3.37L0.72 3.37C0.32 3.37 0 3.69 0 4.09C0 4.49 0.31 4.79 0.72 4.79L3.25 4.79C3.52 4.79 3.73 4.66 3.89 4.4L4.82 2.49L6.78 7.71C6.89 7.98 7.16 8.17 7.42 8.17L7.45 8.17C7.73 8.17 7.94 8.03 8.1 7.77L9.57 4.81L11.67 4.81C12.06 4.81 12.38 4.49 12.38 4.09C12.38 3.69 12.07 3.37 11.67 3.37L9.14 3.37Z" /></g></g></svg>