<svg xmlns="http://www.w3.org/2000/svg" xmlns:xlink="http://www.w3.org/1999/xlink" width="22" height="22" viewBox="0 0 22 22" fill="none"><defs><linearGradient id="linear_0" x1="49.99999999999999%" y1="0%" x2="50%" y2="100%" gradientUnits="objectBoundingBox"><stop offset="0" stop-color="#EDDA47" stop-opacity="1" /><stop offset="1" stop-color="#CF8F29" stop-opacity="1" /></linearGradient></defs><g opacity="1" transform="translate(0.0000061035156022626325 0)  rotate(0 11 11)"><path id="分组 1" fill-rule="evenodd" fill="url(#linear_0)" transform="translate(1 1)  rotate(0 10 10)" opacity="0.8" d="M18.9 1.21Z M16.6 18.99C16.6 18.55 16.24 18.19 15.8 18.19L10.9 18.19L10.9 15.56C13.83 15.24 16.16 12.96 16.55 10.05C18.5 9.74 20 8.04 20 6L20 2.3C20 1.7 19.51 1.21 18.9 1.21L18.9 1.2L16.6 1.2L16.6 0.2C16.6 0.09 16.51 0 16.4 0L3.6 0C3.49 0 3.4 0.09 3.4 0.2L3.4 1.2L1.1 1.2C0.49 1.2 0 1.69 0 2.3L0 6C0 8.04 1.5 9.74 3.45 10.05C3.84 12.96 6.18 15.24 9.1 15.56L9.1 18.19L4.2 18.19C3.76 18.19 3.4 18.55 3.4 18.99L3.4 19.8C3.4 19.91 3.49 20 3.6 20L16.4 20C16.51 20 16.6 19.91 16.6 19.8L16.6 18.99Z M1.80066 6.00302Z M3.40066 8.19302L3.40066 3.00302L1.80066 3.00302L1.80066 6.00302C1.80066 7.02302 2.47066 7.89302 3.40066 8.19302Z M14.8006 1.80354L5.20063 1.80354L5.20063 9.20354C5.20063 10.4335 5.68063 11.5835 6.55063 12.4535C7.41063 13.3235 8.57063 13.8035 9.80063 13.8035L10.2006 13.8035C11.4306 13.8035 12.5806 13.3235 13.4506 12.4535C14.3206 11.5835 14.8006 10.4335 14.8006 9.20354L14.8006 1.80354Z M18.2 3.00302L16.6 3.00302L16.6 8.19302C17.53 7.90302 18.2 7.02302 18.2 6.00302L18.2 3.00302Z " /></g></svg>