<svg xmlns="http://www.w3.org/2000/svg" xmlns:xlink="http://www.w3.org/1999/xlink" width="22" height="22" viewBox="0 0 22 22" fill="none"><defs><linearGradient id="linear_0" x1="49.99999999999999%" y1="0%" x2="50%" y2="100%" gradientUnits="objectBoundingBox"><stop offset="0" stop-color="#FFEA4F" stop-opacity="1" /><stop offset="1" stop-color="#E8A333" stop-opacity="1" /></linearGradient></defs><g opacity="1" transform="translate(0.0000061035156022626325 -6.103515488575795e-7)  rotate(0 11 11)"><path id="分组 4" fill-rule="evenodd" fill="url(#linear_0)" transform="translate(1.7883519206939127 0)  rotate(0 9.211648079306093 11)" opacity="0.8" d="M9.21 22Z M9.21 22C12.43 22 18.42 17.08 18.42 12.44L18.42 3.2L17.51 3.17C17.48 3.17 15.44 3.14 13.32 2.28C11.17 1.42 9.75 0.4 9.75 0.4L9.21 0L8.67 0.4C8.67 0.4 7.28 1.4 5.1 2.28C2.98 3.12 0.94 3.17 0.91 3.17L0 3.2L0 12.44C0 17.08 5.99 22 9.21 22Z M1.52937 4.73377Z M1.52937 4.73377L1.52937 12.5138C1.52937 16.2538 6.97937 20.5538 9.18937 20.5538C11.3894 20.5538 16.8394 16.2738 16.8394 12.5138L16.8394 4.73377C15.8994 4.62377 14.3394 4.38377 12.7294 3.71377C11.1194 3.04377 9.88937 2.31377 9.20937 1.88377C8.53937 2.31377 7.27937 3.04377 5.63937 3.71377C4.02937 4.35377 2.49937 4.62377 1.52937 4.73377L1.52937 4.73377Z M8.70166 15.9259L14.6917 9.02586L13.2917 7.81586L8.51166 13.2959L5.99166 11.1759L4.78166 12.5959L8.70166 15.9259L8.70166 15.9259Z " /></g></svg>