<svg xmlns="http://www.w3.org/2000/svg" xmlns:xlink="http://www.w3.org/1999/xlink" width="31" height="30"
  viewBox="0 0 31 30" fill="none">
  <defs>
    <linearGradient id="linear_0" x1="49.99999999999999%" y1="0%" x2="50%" y2="100%" gradientUnits="objectBoundingBox">
      <stop offset="0" stop-color="#FFEA4F" stop-opacity="1" />
      <stop offset="1" stop-color="#DB8F1D" stop-opacity="1" />
    </linearGradient>
    <linearGradient id="linear_1" x1="49.99999999999999%" y1="0%" x2="50%" y2="100%" gradientUnits="objectBoundingBox">
      <stop offset="0" stop-color="#FFEA4F" stop-opacity="1" />
      <stop offset="1" stop-color="#DB8F1D" stop-opacity="1" />
    </linearGradient>
  </defs>
  <g opacity="1" transform="translate(0.00286865234375 0)  rotate(0 15 15)">
    <g opacity="1" transform="translate(0 0)  rotate(0 14 13.644021299807747)">
      <path id="路径 22" fill-rule="evenodd" fill="url(#linear_0)"
        transform="translate(0 16.28712403511787)  rotate(0 14 5.500459282248811)" opacity="1"
        d="M0.51,4.03C-0.07,4.51 -0.16,5.36 0.25,5.97L3.02,10.17C3.43,10.78 4.2,10.95 4.8,10.57L7.54,8.77L7.79,8.91C13.11,11.7 18.35,11.7 23.45,8.91L23.48,8.91C23.73,8.77 24.69,7.91 27.87,2.32L27.87,2.32C28,2.12 28.03,1.88 27.97,1.68C27.9,1.47 27.77,1.26 27.62,1.16C27.28,0.94 26.84,1 26.54,1.26C26.48,1.31 26.42,1.37 26.38,1.44L23.32,5.84L23.26,5.78L22.9,5.49L22.86,5.49L22.87,5.48L22.56,5.22L25.61,0.8C25.59,0.53 25.5,0.29 25.33,0.15C25.05,-0.09 24.6,-0.03 24.18,0.24C24,0.36 23.83,0.51 23.66,0.7C23.6,0.77 23.54,0.85 23.48,0.93L21.41,3.89C21.38,4.19 21.3,4.47 21.17,4.71C21.08,4.88 20.97,5.04 20.85,5.17C20.75,5.27 20.64,5.37 20.52,5.44C20.42,5.52 20.3,5.58 20.17,5.63C20.07,5.67 19.96,5.71 19.85,5.73C19.75,5.75 19.65,5.77 19.54,5.77C19.52,5.77 19.49,5.77 19.47,5.77L12.75,5.77L12.75,4.75L19.47,4.75C19.52,4.75 19.56,4.74 19.61,4.73C20.08,4.66 20.46,4.22 20.46,3.69C20.46,3.64 20.45,3.59 20.44,3.54C20.38,3.03 19.97,2.63 19.47,2.63L12.66,2.63L9.1,1.07C7.06,0.18 4.74,0.52 2.99,1.95L0.51,4.03Z " />
      <g opacity="1" transform="translate(6.5 0)  rotate(0 8.792319039631192 8.795261818753575)">
        <path id="路径 23" fill-rule="evenodd" fill="url(#linear_1)"
          transform="translate(0 0)  rotate(0 8.792319039631192 8.795261818753575)" opacity="1"
          d="M2.59 2.59C4.33 0.85 6.61 0 8.86 0C11.11 0 13.33 0.85 15.03 2.55C18.44 5.97 18.44 11.55 15 15C13.33 16.67 11.11 17.59 8.76 17.59L8.73 17.59C6.41 17.59 4.19 16.67 2.55 15.03C-0.86 11.62 -0.86 6.03 2.59 2.59Z" />
        <path id="分组 10" fill-rule="evenodd" style="fill:#000000"
          transform="translate(6.37403612901341 5.191499712226351)  rotate(0 2.9530499730439677 3.606128332467164)"
          opacity="1"
          d="M0.58 1.81L0 1.81L0 2.69L0.58 2.69L0.58 3.32L0 3.32L0 4.21L0.58 4.21L0.58 7.21L2.25 7.21L2.25 6L2.63 6C2.98 6 3.3 5.97 3.58 5.91C3.86 5.85 4.1 5.75 4.31 5.61C4.52 5.47 4.69 5.29 4.83 5.06C4.96 4.83 5.06 4.55 5.13 4.21L5.91 4.21L5.91 3.31L5.21 3.31L5.21 2.91C5.21 2.84 5.21 2.76 5.2 2.69L5.91 2.69L5.91 1.8L5.11 1.8C4.97 1.14 4.71 0.67 4.32 0.4L4.31 0.41C3.92 0.14 3.36 0 2.63 0L0.58 0L0.58 1.81Z M2.48454 1.2683L2.48454 1.8083L3.62454 1.8083C3.55454 1.5983 3.45454 1.4483 3.32454 1.3783C3.18454 1.3083 2.99454 1.2683 2.75454 1.2683L2.48454 1.2683L2.48454 1.2683Z M3.36927 4.64715C3.49927 4.57715 3.59927 4.42715 3.65927 4.20715L2.48927 4.20715L2.48927 4.74715L2.81927 4.74715C3.04927 4.74715 3.23927 4.71715 3.36927 4.64715L3.36927 4.64715Z M3.73454 3.18803L3.73454 2.91803C3.73454 2.84803 3.73454 2.76803 3.72454 2.68803L2.48454 2.68803L2.48454 3.30803L3.74454 3.30803L3.74454 3.18803L3.73454 3.18803Z " />
        <path id="路径 28" style="stroke:#000000; stroke-width:1.56; stroke-opacity:1; stroke-dasharray:0 0"
          transform="translate(2.1905486672011776 2.1485331534646863)  rotate(0 6.606502824309922 6.606502824309923)"
          d="M6.61,0C2.96,0 0,2.96 0,6.61C0,10.26 2.96,13.21 6.61,13.21C10.26,13.21 13.21,10.26 13.21,6.61C13.21,2.96 10.26,0 6.61,0Z " />
      </g>
    </g>
  </g>
</svg>