<svg xmlns="http://www.w3.org/2000/svg" xmlns:xlink="http://www.w3.org/1999/xlink" width="40" height="40"
  viewBox="0 0 40 40" fill="none">
  <g opacity="1" transform="translate(0.000002441406195430318 0)  rotate(0 19.55598086137854 19.55598086137854)">
    <path id="路径 3" fill-rule="evenodd" style="fill:#3C5A9B"
      transform="translate(0 0)  rotate(0 19.55598086137854 19.55598086137854)" opacity="1"
      d="M19.56,0C8.76,0 0,8.76 0,19.56C0,30.36 8.76,39.11 19.56,39.11C30.36,39.11 39.11,30.36 39.11,19.56C39.11,8.76 30.36,0 19.56,0Z " />
    <g opacity="1"
      transform="translate(12.138386755868476 8.885316807842607)  rotate(0 6.964420252737179 12.455443909905647)">
      <path id="路径 4" style="stroke:#FFFFFF; stroke-width:3.8960687499999995; stroke-opacity:1; stroke-dasharray:0 0"
        transform="translate(6.516806815335713 0)  rotate(0 3.7060168450693225 12.455443909905647)"
        d="M0,24.91L0,3.23C0,1.45 1.46,0 3.23,0C3.23,0 4.36,-0.01 4.92,0.12C5.47,0.26 7.41,1.03 7.41,1.03 " />
      <path id="路径 5" fill-rule="evenodd" style="fill:#FFFFFF"
        transform="translate(0 7.362216907525077)  rotate(0 6.3805766387352545 1.9461453800063941)" opacity="1"
        d="M0 0L12.76 0L12.21 3.89L0 3.89L0 0Z" />
    </g>
  </g>
</svg>