<svg xmlns="http://www.w3.org/2000/svg" xmlns:xlink="http://www.w3.org/1999/xlink" width="19" height="19"
  viewBox="0 0 19 19" fill="none">
  <path id="矩形 1" style="fill:#E8A333" transform="translate(3.6923820515481225 3.6923896809426537)  rotate(45 5.5 5.5)"
    opacity="100"
    d="M0 1Q-0.0984914 1 -0.19509 0.980785Q-0.291689 0.96157 -0.382683 0.923879Q-0.473678 0.886188 -0.55557 0.83147Q-0.637463 0.776751 -0.707107 0.707107Q-0.776751 0.637463 -0.83147 0.55557Q-0.886188 0.473678 -0.923879 0.382683Q-0.96157 0.291689 -0.980785 0.19509Q-1 0.0984914 -1 0Q-1 -0.0984914 -0.980785 -0.19509Q-0.96157 -0.291689 -0.923879 -0.382683Q-0.886188 -0.473678 -0.83147 -0.55557Q-0.776751 -0.637463 -0.707107 -0.707107Q-0.637463 -0.776751 -0.55557 -0.83147Q-0.473678 -0.886188 -0.382683 -0.923879Q-0.291689 -0.96157 -0.19509 -0.980785Q-0.0984914 -1 0 -1L11 -1Q11.0985 -1 11.1951 -0.980785Q11.2917 -0.96157 11.3827 -0.923879Q11.4737 -0.886188 11.5556 -0.83147Q11.6375 -0.776751 11.7071 -0.707107Q11.7767 -0.637463 11.8315 -0.55557Q11.8862 -0.473678 11.9239 -0.382683Q11.9616 -0.291689 11.9808 -0.19509Q12 -0.0984914 12 0L12 11Q12 11.0985 11.9808 11.1951Q11.9616 11.2917 11.9239 11.3827Q11.8862 11.4737 11.8315 11.5556Q11.7767 11.6375 11.7071 11.7071Q11.6375 11.7767 11.5556 11.8315Q11.4737 11.8862 11.3827 11.9239Q11.2917 11.9616 11.1951 11.9808Q11.0985 12 11 12Q10.9015 12 10.8049 11.9808Q10.7083 11.9616 10.6173 11.9239Q10.5263 11.8862 10.4444 11.8315Q10.3625 11.7767 10.2929 11.7071Q10.2232 11.6375 10.1685 11.5556Q10.1138 11.4737 10.0761 11.3827Q10.0384 11.2917 10.0192 11.1951Q10 11.0985 10 11L10 1L0 1Z " />
  <path id="矩形 1" style="stroke:#C97C00; stroke-width:2; stroke-opacity:1; stroke-dasharray:0 0"
    transform="translate(3.6923820515481225 3.6923896809426537)  rotate(45 5.5 5.5)" d="" />
</svg>