<svg xmlns="http://www.w3.org/2000/svg" xmlns:xlink="http://www.w3.org/1999/xlink" width="30" height="30"
  viewBox="0 0 30 30" fill="none">
  <defs>
    <linearGradient id="back-icon" x1="0%" y1="0%" x2="100%" y2="100%" gradientUnits="objectBoundingBox">
      <stop offset="0" stop-color="#FFEB3B" stop-opacity="1" />
      <stop offset="0.4862" stop-color="#FFEB3B" stop-opacity="0.12" />
      <stop offset="1" stop-color="#FFEB3B" stop-opacity="0.5" />
    </linearGradient>
  </defs>
  <g opacity="1" transform="translate(0 0)  rotate(0 15 15)">
    <path id="矩形 2" fill-rule="evenodd" style="fill:#2E2300" transform="translate(0 0)  rotate(0 15 15)" opacity="1"
      d="M2,30L28,30C29.1,30 30,29.1 30,28L30,2C30,0.9 29.1,0 28,0L2,0C0.9,0 0,0.9 0,2L0,28C0,29.1 0.9,30 2,30Z " />
    <rect id="矩形 2" style="stroke:url(#back-icon); stroke-width:0.5; stroke-opacity:100; stroke-dasharray:0 0"
      transform="translate(0 0)  rotate(0 15 15)" x="0.25" y="0.25" rx="1.75" width="29.5" height="29.5" />
    <path id="矩形 6" style="fill:#E8A333" transform="translate(13 11)  rotate(-135 4 4)" opacity="1"
      d="M0 1Q-0.0984914 1 -0.19509 0.980785Q-0.291689 0.96157 -0.382683 0.923879Q-0.473678 0.886188 -0.55557 0.83147Q-0.637463 0.776751 -0.707107 0.707107Q-0.776751 0.637463 -0.83147 0.55557Q-0.886188 0.473678 -0.923879 0.382683Q-0.96157 0.291689 -0.980785 0.19509Q-1 0.0984914 -1 0Q-1 -0.0984914 -0.980785 -0.19509Q-0.96157 -0.291689 -0.923879 -0.382683Q-0.886188 -0.473678 -0.83147 -0.55557Q-0.776751 -0.637463 -0.707107 -0.707107Q-0.637463 -0.776751 -0.55557 -0.83147Q-0.473678 -0.886188 -0.382683 -0.923879Q-0.291689 -0.96157 -0.19509 -0.980785Q-0.0984914 -1 0 -1L8 -1Q8.09849 -1 8.19509 -0.980785Q8.29169 -0.96157 8.38268 -0.923879Q8.47368 -0.886188 8.55557 -0.83147Q8.63746 -0.776751 8.70711 -0.707107Q8.77675 -0.637463 8.83147 -0.55557Q8.88619 -0.473678 8.92388 -0.382683Q8.96157 -0.291689 8.98078 -0.19509Q9 -0.0984914 9 0L9 8Q9 8.09849 8.98078 8.19509Q8.96157 8.29169 8.92388 8.38268Q8.88619 8.47368 8.83147 8.55557Q8.77675 8.63746 8.70711 8.70711Q8.63746 8.77675 8.55557 8.83147Q8.47368 8.88619 8.38268 8.92388Q8.29169 8.96157 8.19509 8.98078Q8.09849 9 8 9Q7.90151 9 7.80491 8.98078Q7.70831 8.96157 7.61732 8.92388Q7.52632 8.88619 7.44443 8.83147Q7.36254 8.77675 7.29289 8.70711Q7.22325 8.63746 7.16853 8.55557Q7.11381 8.47368 7.07612 8.38268Q7.03843 8.29169 7.01921 8.19509Q7 8.09849 7 8L7 1L0 1Z " />
    <path id="矩形 6" style="stroke:#E8A333; stroke-width:2; stroke-opacity:1; stroke-dasharray:0 0"
      transform="translate(13 11)  rotate(-135 4 4)" d="" />
  </g>
</svg>