<svg width="21" height="14" viewBox="0 0 21 14" fill="none" xmlns="http://www.w3.org/2000/svg">
<g opacity="0.8">
<path fill-rule="evenodd" clip-rule="evenodd" d="M12.3 1.6091C11.56 1.4291 10.79 1.3291 10 1.3291C4.65 1.3291 0.44 5.9691 0.27 6.1591C-0.09 6.5591 -0.09 7.1591 0.27 7.5591C0.36 7.6691 1.62 9.0491 3.59 10.3091L5.12 8.7891C4.01 8.1291 3.11 7.3891 2.53 6.8591C3.82 5.6791 6.71 3.4191 10 3.4191C10.16 3.4191 10.31 3.4291 10.47 3.4391L12.3 1.6091Z" fill="url(#paint0_linear_2_1576)"/>
<path fill-rule="evenodd" clip-rule="evenodd" d="M16.4134 3.41064L14.8834 4.93064C15.9934 5.59064 16.8934 6.34064 17.4634 6.86064C16.1834 8.04064 13.2834 10.3006 10.0034 10.3006C9.84343 10.3006 9.68343 10.3006 9.53343 10.2906L7.70343 12.1206C8.43343 12.2906 9.20343 12.3906 10.0034 12.3906C15.3534 12.3906 19.5534 7.76064 19.7334 7.56064C20.0934 7.16064 20.0934 6.56064 19.7334 6.17064C19.6334 6.06064 18.3834 4.67064 16.4134 3.41064Z" fill="url(#paint1_linear_2_1576)"/>
<path fill-rule="evenodd" clip-rule="evenodd" d="M8.24585 10.0999L13.9259 4.40994L15.4759 2.85994L16.5559 1.77994C16.9659 1.37994 16.9659 0.709941 16.5559 0.309941C16.1459 -0.100059 15.4859 -0.100059 15.0759 0.309941L11.7559 3.62994L6.07585 9.30994L4.51585 10.8599L3.44585 11.9399C3.03585 12.3499 3.03585 13.0099 3.44585 13.4199C3.64585 13.6199 3.91585 13.7299 4.18585 13.7299C4.44585 13.7299 4.71585 13.6199 4.92585 13.4199L6.55585 11.7799L8.24585 10.0999Z" fill="url(#paint2_linear_2_1576)"/>
</g>
<defs>
<linearGradient id="paint0_linear_2_1576" x1="0" y1="1.3291" x2="0" y2="10.3091" gradientUnits="userSpaceOnUse">
<stop stop-color="#EDDA47"/>
<stop offset="1" stop-color="#CF8F29"/>
</linearGradient>
<linearGradient id="paint1_linear_2_1576" x1="7.70343" y1="3.41064" x2="7.70343" y2="12.3906" gradientUnits="userSpaceOnUse">
<stop stop-color="#EDDA47"/>
<stop offset="1" stop-color="#CF8F29"/>
</linearGradient>
<linearGradient id="paint2_linear_2_1576" x1="3.13835" y1="0.00244141" x2="3.13835" y2="13.7299" gradientUnits="userSpaceOnUse">
<stop stop-color="#EDDA47"/>
<stop offset="1" stop-color="#CF8F29"/>
</linearGradient>
</defs>
</svg>
