<svg xmlns="http://www.w3.org/2000/svg" xmlns:xlink="http://www.w3.org/1999/xlink" width="16" height="16"
  viewBox="0 0 16 16" fill="none">
  <defs>
    <linearGradient id="linear_0" x1="49.99999999999999%" y1="0%" x2="50%" y2="100%" gradientUnits="objectBoundingBox">
      <stop offset="0" stop-color="#EDDA47" stop-opacity="1" />
      <stop offset="1" stop-color="#CF8F29" stop-opacity="1" />
    </linearGradient>
    <linearGradient id="linear_1" x1="49.99999999999999%" y1="0%" x2="50%" y2="100%" gradientUnits="objectBoundingBox">
      <stop offset="0" stop-color="#EDDA47" stop-opacity="1" />
      <stop offset="1" stop-color="#CF8F29" stop-opacity="1" />
    </linearGradient>
    <linearGradient id="linear_2" x1="49.99999999999999%" y1="0%" x2="50%" y2="100%" gradientUnits="objectBoundingBox">
      <stop offset="0" stop-color="#EDDA47" stop-opacity="1" />
      <stop offset="1" stop-color="#CF8F29" stop-opacity="1" />
    </linearGradient>
  </defs>
  <g opacity="1" transform="translate(0 0)  rotate(0 8.000000000000002 8)">
    <g mask="url(#bg-mask-0)">
      <path id="分组 1" fill-rule="evenodd" fill="url(#linear_0)"
        transform="translate(5.500000000000001 0)  rotate(0 2.5000000000000004 7.998884084251637)" opacity="1"
        d="M5 11C5 10.18 4.6 9.47 4 9.01L4 1.5C4 0.67 3.33 0 2.5 0C1.67 0 1 0.67 1 1.5L1 9.01C0.4 9.47 0 10.18 0 11C0 11.81 0.4 12.53 1 12.99L1 14.5C1 15.33 1.67 16 2.5 16C3.33 16 4 15.32 4 14.5L4 12.99C4.6 12.53 5 11.81 5 11Z M2 8.54986C2.33 8.47986 2.67 8.47986 3 8.54986L3 1.49986C3 1.21986 2.78 0.999861 2.5 0.999861C2.22 0.999861 2 1.21986 2 1.49986L2 8.54986Z M3 13.449C2.67 13.519 2.33 13.519 2 13.449L2 14.499C2 14.779 2.22 14.999 2.5 14.999C2.78 14.999 3 14.779 3 14.499L3 13.449Z M1.6 12.1887C1.72 12.2787 1.86 12.3487 2 12.4087C2.16 12.4587 2.32 12.4987 2.5 12.4987C2.67 12.4987 2.84 12.4687 3 12.4087C3.15 12.3587 3.28 12.2887 3.4 12.1887L3.4 12.1887C3.52 12.0987 3.63 11.9987 3.71 11.8787L3.72 11.8687C3.8 11.7487 3.86 11.6287 3.91 11.4987C3.92 11.4787 3.92 11.4487 3.93 11.4187L3.93 11.4187C3.97 11.2787 4 11.1387 4 10.9987C4 10.8487 3.97 10.7087 3.93 10.5787C3.92 10.5487 3.92 10.5187 3.91 10.4987C3.86 10.3687 3.8 10.2387 3.72 10.1287L3.71 10.1187C3.63 10.0087 3.52 9.89867 3.4 9.80867C3.28 9.71867 3.15 9.63867 3 9.58867C2.84 9.53867 2.68 9.49867 2.5 9.49867C2.32 9.49867 2.16 9.53867 2 9.58867C1.85 9.63867 1.72 9.71867 1.6 9.80867L1.6 9.80867C1.48 9.89867 1.38 9.99867 1.29 10.1187L1.28 10.1287C1.2 10.2387 1.14 10.3687 1.09 10.4987C1.08 10.5187 1.08 10.5487 1.07 10.5787C1.03 10.7087 1 10.8487 1 10.9987C1 11.1387 1.02 11.2787 1.07 11.4187C1.08 11.4387 1.08 11.4687 1.09 11.4987C1.14 11.6287 1.2 11.7487 1.28 11.8687L1.29 11.8687C1.38 11.9887 1.48 12.0987 1.6 12.1887L1.6 12.1887Z " />
      <path id="分组 2" fill-rule="evenodd" fill="url(#linear_1)"
        transform="translate(0 0)  rotate(0 2.4988839285714284 8)" opacity="1"
        d="M5 5C5 4.18 4.6 3.47 4 3.01L4 1.5C4 0.67 3.32 0 2.5 0C1.67 0 1 0.67 1 1.5L1 3.01C0.4 3.46 0.01 4.16 0 4.96L0 5.04C0.01 5.84 0.4 6.54 1 6.99L1 6.99L1 14.5C1 15.33 1.67 16 2.5 16C3.32 16 4 15.33 4 14.5L4 6.99C4.6 6.53 5 5.81 5 5Z M2.99777 7.44985C2.66777 7.51985 2.32777 7.51985 1.99777 7.44985L1.99777 14.4999C1.99777 14.7799 2.21777 14.9999 2.49777 14.9999C2.77777 14.9999 2.99777 14.7799 2.99777 14.4999L2.99777 7.44985Z M1.99777 2.54986C2.32777 2.47986 2.66777 2.47986 2.99777 2.54986L2.99777 1.49986C2.99777 1.21986 2.77777 0.999861 2.49777 0.999861C2.21777 0.999861 1.99777 1.21986 1.99777 1.49986L1.99777 2.54986Z M1.28554 4.12174L1.27554 4.13174C1.19554 4.24174 1.13554 4.37174 1.08554 4.50174C1.07554 4.52174 1.07554 4.55174 1.06554 4.58174L1.06554 4.58174C1.02554 4.71174 0.995536 4.85174 0.995536 5.00174C0.995536 5.14174 1.01554 5.28174 1.06554 5.42174C1.07554 5.44174 1.07554 5.47174 1.08554 5.50174C1.13554 5.63174 1.19554 5.75174 1.27554 5.86174L1.28554 5.87174C1.36554 5.99174 1.47554 6.10174 1.59554 6.18174L1.59554 6.19174C1.71554 6.28174 1.85554 6.35174 1.99554 6.40174C2.15554 6.46174 2.31554 6.50174 2.49554 6.50174C2.67554 6.50174 2.83554 6.46174 2.99554 6.41174C3.14554 6.35174 3.27554 6.28174 3.39554 6.19174L3.39554 6.19174C3.51554 6.10174 3.61554 5.99174 3.70554 5.87174L3.71554 5.87174C3.79554 5.75174 3.85554 5.63174 3.90554 5.50174C3.91554 5.47174 3.91554 5.45174 3.92554 5.42174C3.96554 5.29174 3.99554 5.15174 3.99554 5.00174C3.99554 4.85174 3.96554 4.71174 3.92554 4.58174C3.88554 4.42174 3.81554 4.27174 3.71554 4.13174L3.70554 4.12174C3.62554 4.01174 3.51554 3.90174 3.40554 3.81174L3.39554 3.81174C3.27554 3.72174 3.14554 3.64174 2.99554 3.59174C2.84554 3.54174 2.67554 3.50174 2.49554 3.50174C2.32554 3.50174 2.15554 3.54174 1.99554 3.59174C1.85554 3.64174 1.71554 3.72174 1.59554 3.81174L1.59554 3.81174C1.47554 3.90174 1.37554 4.00174 1.28554 4.12174Z " />
      <path id="分组 3" fill-rule="evenodd" fill="url(#linear_2)"
        transform="translate(11.000000000000002 0)  rotate(0 2.500000000000001 8)" opacity="1"
        d="M4 1.5C4 0.67 3.33 0 2.5 0C1.67 0 1 0.67 1 1.5L1 3.01C0.4 3.47 0 4.18 0 5C0 5.81 0.4 6.53 1 6.99L1 14.5C1 15.33 1.67 16 2.5 16C3.33 16 4 15.33 4 14.5L4 6.99C4.6 6.53 5 5.81 5 5C5 4.18 4.6 3.47 4 3.01L4 1.5Z M2 2.54986C2.33 2.47986 2.67 2.47986 3 2.54986L3 1.49986C3 1.21986 2.78 0.999861 2.5 0.999861C2.22 0.999861 2 1.21986 2 1.49986L2 2.54986Z M3 7.44985C2.67 7.51985 2.33 7.51985 2 7.44985L2 14.4999C2 14.7799 2.22 14.9999 2.5 14.9999C2.78 14.9999 3 14.7799 3 14.4999L3 7.44985Z M3.72223 5.86728C3.80223 5.74728 3.86223 5.62728 3.91223 5.49728C3.92223 5.47728 3.92223 5.44728 3.93223 5.41728L3.93223 5.41728C3.97223 5.27728 4.00223 5.13728 4.00223 4.99728C4.00223 4.84728 3.97223 4.70728 3.93223 4.57728C3.92223 4.54728 3.92223 4.51728 3.91223 4.49728C3.86223 4.36728 3.80223 4.23728 3.72223 4.12728L3.71223 4.11728C3.62223 4.00728 3.52223 3.89728 3.40223 3.80728C3.28223 3.71728 3.14223 3.63728 3.00223 3.58728C2.84223 3.53728 2.67223 3.49728 2.50223 3.49728C2.33223 3.49728 2.16223 3.52728 2.00223 3.58728C1.85223 3.63728 1.72223 3.71728 1.60223 3.80728L1.59223 3.80728C1.48223 3.89728 1.37223 3.99728 1.29223 4.11728L1.28223 4.12728C1.20223 4.23728 1.14223 4.36728 1.09223 4.49728C1.08223 4.51728 1.08223 4.54728 1.07223 4.57728C1.03223 4.70728 1.00223 4.84728 1.00223 4.99728C1.00223 5.13728 1.02223 5.27728 1.07223 5.41728C1.08223 5.43728 1.08223 5.46728 1.09223 5.49728C1.14223 5.62728 1.20223 5.74728 1.28223 5.86728L1.29223 5.86728C1.37223 5.98728 1.48223 6.09728 1.59223 6.18728C1.72223 6.27728 1.85223 6.34728 2.00223 6.40728C2.16223 6.46728 2.33223 6.49728 2.50223 6.49728C2.67223 6.49728 2.84223 6.46728 3.00223 6.40728C3.14223 6.35728 3.28223 6.28728 3.40223 6.18728L3.40223 6.18728C3.52223 6.09728 3.62223 5.99728 3.71223 5.87728L3.72223 5.86728Z " />
    </g>
  </g>
</svg>