<svg xmlns="http://www.w3.org/2000/svg" xmlns:xlink="http://www.w3.org/1999/xlink" width="22" height="21"
  viewBox="0 0 22 21" fill="none">
  <defs>
    <linearGradient id="linear_0" x1="49.99999999999999%" y1="0%" x2="50%" y2="100%" gradientUnits="objectBoundingBox">
      <stop offset="0" stop-color="#FFEA4F" stop-opacity="1" />
      <stop offset="1" stop-color="#E8A333" stop-opacity="1" />
    </linearGradient>
    <linearGradient id="linear_1" x1="49.99999999999999%" y1="0%" x2="50%" y2="100%" gradientUnits="objectBoundingBox">
      <stop offset="0" stop-color="#FFEA4F" stop-opacity="1" />
      <stop offset="1" stop-color="#E8A333" stop-opacity="1" />
    </linearGradient>
  </defs>
  <g opacity="1" transform="translate(0 0)  rotate(0 11 10.305478180130004)">
    <g mask="url(#bg-mask-0)">
      <path id="分组 1" fill-rule="evenodd" fill="url(#linear_0)"
        transform="translate(0 0)  rotate(0 11 10.305478180130004)" opacity="1"
        d="M14.71 0.13Z M0.24 8.23Z M3.82 17.22Z M18.12 3.33Z M17.91 16.1Z M14.19 20.6Z M21.76 8.09C21.62 7.43 21.21 7 20.69 7L20.57 7C19.1 7 17.9 5.8 17.9 4.33C17.9 3.89 18.12 3.33 18.12 3.33C18.38 2.72 18.09 2.02 17.42 1.65L14.72 0.13L14.71 0.13L14.7 0.13C14.52 0.06 14.32 0 14.13 0C13.75 0 13.31 0.18 13.04 0.45C12.56 0.92 11.6 1.63 10.91 1.63C10.22 1.63 9.25 0.92 8.78 0.45C8.49 0.16 8.1 0 7.69 0C7.5 0 7.3 0.07 7.15 0.11L7.13 0.12C7.13 0.13 7.11 0.13 7.11 0.13L4.28 1.66C4.28 1.66 4.27 1.66 4.27 1.66C3.75 1.99 3.55 2.74 3.82 3.34L3.83 3.37C3.88 3.48 4.1 3.98 4.1 4.45C4.1 5.92 2.9 7.12 1.42 7.12L1.3 7.12C0.76 7.12 0.36 7.53 0.24 8.22L0.24 8.23L0.23 8.29C0.22 8.31 0.22 8.35 0.21 8.38C0.15 8.75 0 9.63 0 10.34C0 11.05 0.15 11.93 0.21 12.31L0.22 12.31C0.22 12.36 0.24 12.43 0.24 12.43L0.24 12.45L0.24 12.45L0.24 12.46C0.38 13.13 0.79 13.56 1.31 13.56L1.37 13.56C2.84 13.56 4.04 14.75 4.04 16.22C4.04 16.66 3.82 17.22 3.82 17.22C3.57 17.8 3.82 18.56 4.39 18.95C4.4 18.95 4.41 18.96 4.41 18.96L7.04 20.41C7.05 20.41 7.06 20.42 7.06 20.42L7.06 20.42C7.25 20.49 7.44 20.55 7.64 20.55C8.07 20.55 8.48 20.39 8.71 20.12L8.73 20.1L8.74 20.09C8.76 20.08 8.8 20.04 8.8 20.04L8.84 20.01L8.85 20C9.28 19.63 10.18 18.86 10.91 18.86C11.47 18.86 12.26 19.34 13.1 20.17C13.38 20.45 13.78 20.61 14.18 20.61L14.19 20.6C14.46 20.6 14.66 20.53 14.9 20.41L14.9 20.41L17.66 18.9L17.68 18.88C18.18 18.56 18.39 17.83 18.14 17.24L18.11 17.2L18.11 17.15C18.01 16.94 17.87 16.52 17.91 16.12L17.91 16.1C17.91 14.63 19.11 13.43 20.58 13.43L20.7 13.43C21.24 13.43 21.64 13.02 21.77 12.33L21.77 12.33L21.77 12.31C21.77 12.28 21.78 12.24 21.79 12.19L21.79 12.19C21.84 11.86 22 10.98 22 10.21C22 9.5 21.85 8.62 21.79 8.25C21.78 8.2 21.77 8.14 21.76 8.12L21.76 8.11L21.76 8.1L21.76 8.09Z M1.67429 8.7799Z M13.2443 2.2299Z M10.7843 17.3699Z M5.58429 4.3399C5.58429 5.4199 5.17429 6.4499 4.42429 7.2299C3.75429 7.9399 2.84429 8.3999 1.88429 8.5199L1.71429 8.5399L1.68429 8.7099C1.67429 8.7299 1.67429 8.7599 1.67429 8.7799C1.67429 8.7799 1.67429 8.8199 1.67429 8.8299L1.67429 8.8599C1.61429 9.2399 1.54429 9.8299 1.54429 10.2699C1.54429 10.7199 1.62429 11.3199 1.67429 11.7099L1.67429 11.7399C1.67429 11.7699 1.68429 11.8099 1.68429 11.8299L1.70429 12.0099L1.88429 12.0299C2.85429 12.1499 3.75429 12.5999 4.42429 13.2999C5.17429 14.0799 5.58429 15.1199 5.58429 16.2199C5.58429 16.7399 5.45429 17.2399 5.34429 17.5599L5.27429 17.7399L7.57429 19.0399L7.69429 18.9199C7.94429 18.6699 8.20429 18.4499 8.47429 18.2699L8.48429 18.2699C9.31429 17.6699 10.0943 17.3699 10.7843 17.3699L10.7943 17.3699C11.5043 17.3699 12.2943 17.6699 13.1243 18.2599L13.1343 18.2699L13.1443 18.2699C13.4743 18.4499 13.7843 18.6799 14.0543 18.9399L14.1643 19.0499L16.5743 17.7399L16.5143 17.5599C16.4243 17.2999 16.2643 16.7799 16.2643 16.2299C16.2643 15.1499 16.6743 14.1199 17.4243 13.3299C18.1043 12.6199 19.0143 12.1499 19.9943 12.0399L20.1543 12.0199L20.1843 11.8499C20.2243 11.5599 20.3043 10.8999 20.3043 10.2899C20.3043 9.8299 20.2243 9.2399 20.1743 8.8499L20.1743 8.8199C20.1643 8.7899 20.1643 8.7599 20.1543 8.7299L20.1443 8.5499L19.9643 8.5299C18.9843 8.4199 18.0843 7.9699 17.4143 7.2599C16.6643 6.4799 16.2543 5.4499 16.2543 4.3499C16.2543 3.9499 16.3443 3.5099 16.5143 3.0099L16.5743 2.8299L14.1743 1.4999L14.0543 1.5999C13.8043 1.8299 13.5343 2.0499 13.2443 2.2299C12.4643 2.7699 11.6643 3.0699 11.0143 3.0699C10.3543 3.0699 9.61429 2.8099 8.71429 2.2299L8.68429 2.2099C8.33429 1.9799 8.06429 1.7199 7.89429 1.5499L7.77429 1.4299L5.26429 2.8199L5.33429 2.9999C5.44429 3.3199 5.58429 3.8199 5.58429 4.3399Z " />
      <path id="分组 2" fill-rule="evenodd" fill="url(#linear_1)"
        transform="translate(7.026926648096564 6.418198700092859)  rotate(0 3.8811513463324046 3.8648096564531165)"
        opacity="1"
        d="M3.89 7.73Z M6.64 6.59C7.37 5.86 7.76 4.89 7.76 3.86C7.76 2.84 7.35 1.88 6.62 1.14C5.88 0.4 4.91 0 3.88 0C2.85 0 1.88 0.4 1.14 1.14C0.4 1.87 0 2.84 0 3.86C0 4.88 0.41 5.85 1.14 6.59C1.88 7.32 2.86 7.73 3.88 7.73L3.89 7.73C4.94 7.73 5.92 7.32 6.64 6.59Z M3.88246 1.54838Z M3.88246 6.18837C5.16246 6.18837 6.21246 5.14838 6.21246 3.86838C6.20246 2.56838 5.18246 1.54838 3.88246 1.54838C2.60246 1.54838 1.55246 2.58838 1.55246 3.86838C1.55246 5.14838 2.60246 6.18837 3.88246 6.18837Z " />
    </g>
  </g>
</svg>