<svg t="1681454323849" class="icon" viewBox="0 0 1024 1024" version="1.1" xmlns="http://www.w3.org/2000/svg" p-id="4638"
  id="mx_n_1681454323850" width="48" height="48">
  <path
    d="M778.24 801.792c-59.392 53.248-126.804992 86.016-202.24 98.304s-149.332992 3.072-221.696-27.648c-72.363008-32.768-129.536-81.236992-171.52-145.408S119.467008 591.188992 118.784 512h65.536c0.683008 68.948992 19.627008 130.731008 56.832 185.344s87.892992 94.548992 152.064 119.808c64.171008 24.576 128.512 29.355008 193.024 14.336 64.512-15.019008 120.32-47.787008 167.424-98.304h-95.232c-9.556992 0-17.408-3.072-23.552-9.216s-9.216-13.824-9.216-23.04 3.072-16.896 9.216-23.04 13.995008-9.556992 23.552-10.24h152.576c8.875008 0.683008 16.384 4.096 22.528 10.24s9.556992 13.652992 10.24 22.528v152.576c-0.683008 9.556992-4.096 17.408-10.24 23.552s-13.824 9.216-23.04 9.216-16.896-3.072-23.04-9.216-9.216-13.995008-9.216-23.552v-51.2zM270.336 290.816h95.232c9.556992 0 17.408 3.072 23.552 9.216s9.216 13.824 9.216 23.04-3.072 16.896-9.216 23.04-13.995008 9.556992-23.552 10.24H212.992c-8.875008-0.683008-16.384-4.096-22.528-10.24s-9.556992-13.652992-10.24-22.528V171.008c0.683008-9.556992 4.096-17.408 10.24-23.552s13.824-9.216 23.04-9.216 16.896 3.072 23.04 9.216 9.216 13.995008 9.216 23.552v51.2c59.392-53.248 126.804992-86.016 202.24-98.304s149.675008-3.072 222.72 27.648c72.363008 32.768 129.364992 81.236992 171.008 145.408s62.804992 135.851008 63.488 215.04h-65.536c-0.683008-68.948992-19.627008-130.731008-56.832-185.344S694.955008 232.107008 630.784 206.848c-64.171008-24.576-128.512-29.355008-193.024-14.336-64.512 15.019008-120.32 47.787008-167.424 98.304z"
    p-id="4639" fill="#FFF8B7"></path>
</svg>