<svg width="18" height="16" viewBox="0 0 18 16" fill="none" xmlns="http://www.w3.org/2000/svg">
<g opacity="0.8" clip-path="url(#clip0_2_1570)">
<path fill-rule="evenodd" clip-rule="evenodd" d="M5.75156 14.0713L14.152 5.67086L10.3195 1.83834L1.91904 10.2388L5.75156 14.0713Z" fill="url(#paint0_linear_2_1570)"/>
<path fill-rule="evenodd" clip-rule="evenodd" d="M1.55 10.647L0 15.987V15.997H6.12V15.087H3.24L5.39 14.477L1.55 10.647Z" fill="url(#paint1_linear_2_1570)"/>
<path fill-rule="evenodd" clip-rule="evenodd" d="M10.7296 1.47018L14.5596 5.31018L15.6996 4.17018L15.6596 4.12018C15.8796 3.91018 15.9896 3.62018 15.9896 3.35018C15.9896 3.10018 15.8996 2.86018 15.6996 2.66018L13.3296 0.290184C12.9196 -0.119816 12.2796 -0.0798163 11.8696 0.330184C11.8396 0.360184 11.8096 0.390184 11.7896 0.420184L10.7296 1.47018Z" fill="url(#paint2_linear_2_1570)"/>
<path fill-rule="evenodd" clip-rule="evenodd" d="M0 15.9925H18V15.0825H0V15.9925Z" fill="url(#paint3_linear_2_1570)"/>
</g>
<defs>
<linearGradient id="paint0_linear_2_1570" x1="1.91904" y1="10.2388" x2="5.75156" y2="14.0713" gradientUnits="userSpaceOnUse">
<stop stop-color="#EDDA47"/>
<stop offset="1" stop-color="#CF8F29"/>
</linearGradient>
<linearGradient id="paint1_linear_2_1570" x1="0" y1="10.647" x2="0" y2="15.997" gradientUnits="userSpaceOnUse">
<stop stop-color="#EDDA47"/>
<stop offset="1" stop-color="#CF8F29"/>
</linearGradient>
<linearGradient id="paint2_linear_2_1570" x1="10.7296" y1="0.00195313" x2="10.7296" y2="5.31018" gradientUnits="userSpaceOnUse">
<stop stop-color="#EDDA47"/>
<stop offset="1" stop-color="#CF8F29"/>
</linearGradient>
<linearGradient id="paint3_linear_2_1570" x1="0" y1="15.0825" x2="0" y2="15.9925" gradientUnits="userSpaceOnUse">
<stop stop-color="#EDDA47"/>
<stop offset="1" stop-color="#CF8F29"/>
</linearGradient>
<clipPath id="clip0_2_1570">
<rect width="18" height="15.9942" fill="white"/>
</clipPath>
</defs>
</svg>
